<?xml version="1.0" encoding="UTF-8" standalone="no"?>
<svg
   viewBox="0 0 5519.2299 4649.8444"
   width="5519.23"
   height="4649.8442"
   version="1.1"
   id="svg20"
   xmlns="http://www.w3.org/2000/svg"
   xmlns:svg="http://www.w3.org/2000/svg">
  <desc
     id="desc1">Skizze3.dxf - scale = 25.400000, origin = (0.000000, 0.000000), method = file</desc>
  <defs
     id="defs4" />
  <g
     id="g20"
     transform="translate(-25225.328,-127.3454)">
    <path
       style="fill:#0b1728;stroke-width:15.2854"
       d="m 25565.699,4701.7369 c -52.478,-118.9459 -142.635,-254.806 -248.904,-375.0823 l -91.467,-103.5237 51.142,-57.1324 c 28.128,-31.4229 844.538,-952.9748 1814.245,-2047.8929 969.706,-1094.9181 1771.287,-1990.7602 1781.29,-1990.7602 24.498,0 513.477,492.8399 659.704,664.9138 493.675,580.9348 911.303,1273.411 1178.09,1953.4116 l 34.759,88.596 -41.175,15.7788 c -22.646,8.6784 -1162.357,441.162 -2532.691,961.0749 -1370.334,519.9129 -2508.712,951.8877 -2529.73,959.9441 -35.943,13.778 -40.414,9.6599 -75.263,-69.3277 z"
       id="path24" />
  </g>
</svg>
