<?xml version="1.0" encoding="UTF-8" standalone="no"?>
<svg
   viewBox="0 0 4244.4911 5634.174"
   width="4244.4912"
   height="5634.1738"
   version="1.1"
   id="svg20"
   xmlns="http://www.w3.org/2000/svg"
   xmlns:svg="http://www.w3.org/2000/svg">
  <desc
     id="desc1">Skizze3.dxf - scale = 25.400000, origin = (0.000000, 0.000000), method = file</desc>
  <defs
     id="defs4" />
  <g
     id="g20"
     transform="translate(-21305.45,6092.5252)">
    <path
       style="fill:#0b1728;stroke-width:15.2854"
       d="m 21814.087,-515.3619 c -91.637,-72.3276 -316.046,-187.9367 -427.95,-220.4684 l -80.687,-23.4562 28.077,-110.2319 c 15.442,-60.6276 311.027,-1258.9278 656.857,-2662.8894 345.829,-1403.9616 631.553,-2555.4407 634.942,-2558.8425 18.192,-18.2636 602.356,163.9447 879.141,274.2156 244.028,97.2203 589.777,261.2067 816.421,387.2223 370.508,206.0052 915.89,586.5711 1157.157,807.4611 l 71.896,65.8234 -1815.537,2047.3359 c -998.545,1126.0346 -1821.916,2048.8695 -1829.713,2050.7441 -7.798,1.8746 -48.57,-23.7366 -90.604,-56.914 z"
       id="path23" />
  </g>
</svg>
