<?xml version="1.0" encoding="UTF-8" standalone="no"?>
<svg
   viewBox="0 0 5580.267 3269.4644"
   width="5580.2671"
   height="3269.4644"
   version="1.1"
   id="svg20"
   xmlns="http://www.w3.org/2000/svg"
   xmlns:svg="http://www.w3.org/2000/svg">
  <desc
     id="desc1">Skizze3.dxf - scale = 25.400000, origin = (0.000000, 0.000000), method = file</desc>
  <defs
     id="defs4" />
  <g
     id="g20"
     transform="translate(-27412.203,-8171.6502)">
    <path
       style="fill:#0b1728;stroke-width:15.2854"
       d="m 32209.354,11357.836 c -799.521,-98.937 -4697.52,-572.514 -4712.483,-572.529 -5.884,-0.01 -11.738,-87.706 -13.01,-194.889 -1.75,-147.416 -10.457,-224.658 -35.754,-317.16 -18.392,-67.256 -34.548,-131.795 -35.901,-143.42 -1.704,-14.649 781.049,-318.395 2550.198,-989.5968 1403.962,-532.6529 2560.849,-968.5188 2570.861,-968.591 20.208,-0.1458 160.319,414.2142 232.542,687.7104 174.1,659.2927 255.297,1434.0764 217.588,2076.2304 -10.204,173.762 -22.692,358.921 -27.75,411.464 -8.763,91.035 -11.076,95.453 -49.108,93.825 -21.952,-0.94 -335.684,-38.31 -697.183,-83.044 z"
       id="path25" />
  </g>
</svg>
