<?xml version="1.0" encoding="UTF-8" standalone="no"?>
<svg
   viewBox="0 0 5676.3983 3750.2062"
   width="5676.3984"
   height="3750.2061"
   version="1.1"
   id="svg20"
   xmlns="http://www.w3.org/2000/svg"
   xmlns:svg="http://www.w3.org/2000/svg">
  <desc
     id="desc1">Skizze3.dxf - scale = 25.400000, origin = (0.000000, 0.000000), method = file</desc>
  <defs
     id="defs4" />
  <g
     id="g20"
     transform="translate(-28431.571,-16634.298)">
    <path
       style="fill:#0b1728;stroke-width:15.2854"
       d="m 30709.277,18843.142 c -1227.416,-847.749 -2244.646,-1550.179 -2260.512,-1560.956 -27.56,-18.721 -26.02,-24.746 34.536,-135.08 70.469,-128.398 130.112,-291.471 154.136,-421.428 8.711,-47.125 18.334,-88.177 21.382,-91.226 3.049,-3.049 375.78,39.521 828.291,94.6 452.512,55.079 1301.248,158.21 1886.081,229.179 584.833,70.97 1433.32,173.967 1885.526,228.882 452.206,54.915 829.688,99.846 838.849,99.846 53.443,0 -109.149,796.471 -256.573,1256.844 -192.385,600.774 -508.114,1259.767 -837.415,1747.86 l -62.637,92.841 z"
       id="path26" />
  </g>
</svg>
