<?xml version="1.0" encoding="UTF-8" standalone="no"?>
<svg
   viewBox="0 0 4244.4853 5639.529"
   width="4244.4854"
   height="5639.5288"
   version="1.1"
   id="svg20"
   xmlns="http://www.w3.org/2000/svg"
   xmlns:svg="http://www.w3.org/2000/svg">
  <desc
     id="desc1">Skizze3.dxf - scale = 25.400000, origin = (0.000000, 0.000000), method = file</desc>
  <defs
     id="defs4" />
  <g
     id="g20"
     transform="translate(-4573.3838,6302.6217)">
    <path
       style="fill:#0b1728;stroke-width:15.2854"
       d="m 6393.0918,-2715.1545 -1819.708,-2052.0615 71.8926,-65.8234 c 200.9013,-183.9413 651.7214,-508.5454 973.7296,-701.1147 459.6955,-274.9099 977.1758,-505.254 1505.3168,-670.0569 203.289,-63.4348 365.714,-105.7114 374.054,-97.3604 3.196,3.1999 288.759,1154.5139 634.5852,2558.4755 345.826,1403.9616 641.404,2602.2618 656.84,2662.8894 l 28.067,110.2319 -80.687,23.4561 c -110.495,32.1218 -334.517,147.1047 -432.081,221.7726 -44.307,33.9091 -83.201,61.6528 -86.429,61.6528 -3.23,0 -824.7402,-923.4276 -1825.5802,-2052.0614 z"
       id="path21" />
  </g>
</svg>
