<?xml version="1.0" encoding="UTF-8" standalone="no"?>
<svg
   viewBox="0 0 5579.4774 3267.7977"
   width="5579.4775"
   height="3267.7976"
   version="1.1"
   id="svg20"
   xmlns="http://www.w3.org/2000/svg"
   xmlns:svg="http://www.w3.org/2000/svg">
  <desc
     id="desc1">Skizze3.dxf - scale = 25.400000, origin = (0.000000, 0.000000), method = file</desc>
  <defs
     id="defs4" />
  <g
     id="g20"
     transform="translate(4556.3245,-5528.1443)">
    <path
       style="fill:#0b1728;stroke-width:15.2854"
       d="m -4528.271,8601.053 c -59.712,-664.052 -23.893,-1337.6283 105.465,-1983.2773 59.579,-297.3723 119.018,-520.5975 223.268,-838.4975 83.988,-256.1102 84.737,-257.5992 125.091,-248.6233 22.329,4.9664 1178.976,441.4744 2570.327,970.0176 1766.917,671.2122 2528.988,967.4207 2527.27,982.3214 -1.353,11.7333 -17.463,76.3611 -35.8,143.6161 -25.121,92.137 -33.936,170.323 -35.754,317.144 -1.327,107.174 -5.852,194.88 -10.056,194.903 -4.203,0.02 -575.112,68.966 -1268.686,153.205 -3592.256,436.306 -4152.566,504.08 -4167.436,504.08 -9.6,0 -23.28,-79.137 -33.689,-194.889 z"
       id="path32" />
  </g>
</svg>
