<?xml version="1.0" encoding="UTF-8" standalone="no"?>
<svg
   viewBox="0 0 5674.1473 3752.378"
   width="5674.1475"
   height="3752.3779"
   version="1.1"
   id="svg20"
   xmlns="http://www.w3.org/2000/svg"
   xmlns:svg="http://www.w3.org/2000/svg">
  <desc
     id="desc1">Skizze3.dxf - scale = 25.400000, origin = (0.000000, 0.000000), method = file</desc>
  <defs
     id="defs4" />
  <g
     id="g20"
     transform="translate(3798.3886,-14941.374)">
    <path
       style="fill:#0b1728;stroke-width:15.2854"
       d="m -2742.8515,18523.118 c -170.4636,-267.203 -242.9894,-395.178 -386.8933,-682.693 -287.7036,-574.82 -500.4748,-1212.876 -616.7595,-1849.53 -54.6758,-299.348 -64.0329,-397.403 -37.9314,-397.492 11.5946,-0.04 1238.013,-147.9 2725.3742,-328.58 C 428.3,15084.144 1647.526,14938.61 1650.33,14941.414 c 2.804,2.804 12.226,43.655 20.938,90.781 23.946,129.536 83.6,292.907 153.377,420.045 34.443,62.756 56.862,119.417 49.82,125.913 -7.041,6.496 -982.659,680.719 -2168.04,1498.273 -1185.3805,817.553 -2196.9036,1515.906 -2247.8289,1551.894 l -92.5914,65.432 z"
       id="path31" />
  </g>
</svg>
