<?xml version="1.0" encoding="UTF-8" standalone="no"?>
<svg
   viewBox="0 0 14857.752 14850.092"
   width="14857.752"
   height="14850.092"
   version="1.1"
   id="svg20"
   xmlns="http://www.w3.org/2000/svg"
   xmlns:svg="http://www.w3.org/2000/svg">
  <desc
     id="desc1">Skizze3.dxf - scale = 25.400000, origin = (0.000000, 0.000000), method = file</desc>
  <defs
     id="defs4" />
  <g
     id="g20"
     transform="translate(31478.749,-7533.1894)">
    <path
       style="fill:#d40000;stroke-width:15.2854"
       d="m -24469.913,22378.487 c -33.628,-3.239 -147.122,-13.264 -252.209,-22.279 -1186.683,-101.793 -2382.174,-519.149 -3400.996,-1187.316 -2642.965,-1733.318 -3900.897,-4951.649 -3132.529,-8014.355 282.858,-1127.469 812.924,-2151.286 1578.041,-3047.967 189.536,-222.127 606.869,-634.472 828.433,-818.53 1259.41,-1046.221 2674.105,-1620.599 4295.19,-1743.882 267.329,-20.33 985.352,-10.93 1230.473,16.109 1546.866,170.632 2897.538,742.972 4073.335,1726.053 214.908,179.684 634.402,594.792 820.28,811.703 1175.696,1371.984 1808.897,3073.48 1808.897,4860.749 0,2840.854 -1625.797,5438.367 -4180.426,6679.008 -783.277,380.395 -1601.262,614.907 -2483.873,712.114 -207.618,22.866 -1036.379,42.87 -1184.616,28.593 z m 1039.405,-480.024 c 1474.092,-138.066 2846.172,-721.134 3951.269,-1679.099 290.332,-251.677 650.106,-629.637 904.402,-950.117 490.868,-618.623 909.591,-1404.811 1156.019,-2170.523 447.367,-1390.077 447.64,-2891.835 0.778,-4277.413 -388.773,-1205.462 -1087.817,-2267.986 -2045.913,-3109.719 -999.682,-878.269 -2240.166,-1450.199 -3569.135,-1645.564 -1833.578,-269.545 -3695.75,199.456 -5181.742,1305.057 -635.237,472.626 -1229.297,1103.725 -1662.678,1766.343 -1000.618,1529.898 -1362.61,3401.454 -1003.718,5189.385 220.892,1100.437 701.118,2124.746 1410.62,3008.813 820.252,1022.065 1945.351,1803.871 3204.23,2226.546 614.927,206.465 1142.962,306.078 1895.818,357.642 139.668,9.566 760.513,-4.535 940.05,-21.351 z"
       id="path34" />
  </g>
</svg>
