<?xml version="1.0" encoding="UTF-8" standalone="no"?>
<svg
   viewBox="0 0 5011.3617 5297.5368"
   width="5011.3618"
   height="5297.5366"
   version="1.1"
   id="svg20"
   xmlns="http://www.w3.org/2000/svg"
   xmlns:svg="http://www.w3.org/2000/svg">
  <desc
     id="desc1">Skizze3.dxf - scale = 25.400000, origin = (0.000000, 0.000000), method = file</desc>
  <defs
     id="defs4" />
  <g
     id="g20"
     transform="translate(-1670.202,-21310.748)">
    <path
       style="fill:#0b1728;stroke-width:15.2854"
       d="m 3934.825,26501.462 c -361.788,-206.033 -676.838,-424.17 -1011.222,-700.157 -224.601,-185.377 -701.029,-661.654 -889.331,-889.048 -166.265,-200.784 -364.07,-464.92 -364.07,-486.157 0,-13.224 4457.047,-3098.589 4499.91,-3115.037 10.486,-4.024 49.535,31.036 86.776,77.911 78.141,98.357 214.319,218.197 335.205,294.991 46.238,29.373 86.494,55.398 89.457,57.832 6.866,5.639 -2540.138,4865.639 -2550.402,4866.486 -4.204,0.347 -92.549,-47.723 -196.323,-106.821 z"
       id="path30" />
  </g>
</svg>
