<?xml version="1.0" encoding="UTF-8" standalone="no"?>
<svg
   viewBox="0 0 959.83543 958.56924"
   width="959.83545"
   height="958.56921"
   version="1.1"
   id="svg65"
   xmlns="http://www.w3.org/2000/svg"
   xmlns:svg="http://www.w3.org/2000/svg">
  <desc
     id="desc1">normal_keyboard.dxf - scale = 25.400000, origin = (0.000000, 0.000000), method = file</desc>
  <defs
     id="defs4" />
  <g
     id="g65"
     transform="translate(-0.67552449,-1123.0594)">
    <path
       d="m 0.25,1122.5197 a 0.25,0.25 0 0 0 -0.5,0 0.25,0.25 0 0 0 0.5,0 z"
       style="fill:none;stroke:#000000"
       id="path5" />
    <path
       d="m 0,1122.5197 h 960 v 960 H 0 Z"
       style="fill:none;stroke:#000000"
       id="path6" />
    <path
       d="m 48,1170.5197 h 864 v 864 H 48 Z"
       style="fill:none;stroke:#000000"
       id="path7" />
    <path
       d="m 960,1122.5197 h 960 v 960 H 960 Z"
       style="fill:none;stroke:#000000"
       id="path9" />
    <path
       style="fill:#000000;stroke-width:5.4042"
       d="M 5.4041957,1602.344 V 1126.7748 H 480.97342 956.54265 v 475.5692 475.5693 H 480.97342 5.4041957 Z m 907.9048843,2.7021 V 1170.0084 H 478.27132 43.233566 v 435.0377 435.0378 H 478.27132 913.30908 Z"
       id="path66" />
    <path
       style="fill:#000000;stroke-width:0.675524"
       d="m 243.01993,1126.6059 c 130.87442,-0.094 345.03256,-0.094 475.90699,0 130.87442,0.094 23.79535,0.1708 -237.9535,0.1708 -261.74884,0 -368.82791,-0.077 -237.95349,-0.1708 z"
       id="path67" />
    <path
       style="fill:#000000;stroke-width:0.675524"
       d="M 0.67552447,1554.044 V 1123.0594 H 479.96014 959.24475 v 430.9846 c 0,430.5343 -10e-4,430.9847 -1.35105,430.9847 -1.34963,0 -1.35105,-0.4504 -1.35105,-429.2958 V 1126.4371 H 480.97342 5.4041958 v 429.2958 429.2958 H 3.0398601 0.67552447 Z"
       id="path68" />
    <path
       style="fill:#000000;stroke-width:0.675524"
       d="m 0.67552447,2033.3287 v -48.3 H 3.0398601 5.4041958 v 46.6111 46.6112 H 480.97342 956.54265 l 0.10808,-48.8066 c 0.0595,-26.8437 0.23076,-47.8187 0.38059,-46.6112 0.35121,2.8301 1.37355,2.8301 1.72475,0 0.14983,-1.2075 0.32108,20.5275 0.38059,48.3 l 0.10809,50.4955 H 479.96014 0.67552447 Z"
       id="path69" />
    <path
       style="fill:#000000;stroke-width:0.675524"
       d="m 959.23475,2060.5185 c -0.11238,-237.2314 0.10373,-609.4731 0.35399,-609.7233 0.18234,-0.1824 0.33153,141.6806 0.33153,315.2509 0,173.5704 -0.15199,315.5826 -0.33776,315.5826 -0.18577,0 -0.34226,-9.4996 -0.34776,-21.1102 z"
       id="path70" />
    <path
       style="fill:#000000;stroke-width:0.675524"
       d="m 959.75849,2029.7821 c -0.20115,-28.5155 -0.29532,-118.5714 -0.20925,-200.1241 0.0861,-81.5527 -0.0424,-134.9022 -0.28539,-118.5545 -0.29051,19.541 -0.35128,11.6731 -0.1774,-22.9679 0.14546,-28.98 0.47377,-94.3369 0.72958,-145.2377 0.32975,-65.6137 0.51089,-0.6891 0.62244,223.0919 0.0865,173.6014 0.0512,315.6389 -0.0785,315.6389 -0.12969,0 -0.40037,-23.331 -0.60152,-51.8466 z"
       id="path71" />
    <path
       style="fill:#000000;stroke-width:0.675524"
       d="m 959.56478,1954.9678 c -7e-5,-26.3792 0.0838,-37.269 0.18627,-24.1996 0.10252,13.0694 0.10257,34.6525 1.2e-4,47.9622 -0.10245,13.3098 -0.18633,2.6166 -0.18639,-23.7626 z"
       id="path72" />
    <path
       style="fill:#000000;stroke-width:0.675524"
       d="M 0.67552447,1766.1587 V 1450.6888 H 21.954545 43.233566 v 294.8664 294.8665 H 478.27132 913.30908 v -294.8665 -294.8664 h 22.96783 22.96784 l 0.13882,81.9073 c 0.0764,45.0491 0.3179,77.8036 0.5367,72.7878 0.2188,-5.0158 0.4603,95.7303 0.5367,223.8801 0.0763,128.1498 -0.069,232.7918 -0.32296,232.5378 -0.254,-0.254 -0.65452,-100.544 -0.89001,-222.8668 l -0.42814,-222.4049 -0.12336,182.2227 c -0.0817,120.7052 -0.35086,182.2227 -0.79745,182.2227 -0.44625,0 -0.7322,-56.1239 -0.84576,-166.0101 -0.13098,-126.73 -0.17246,-115.6612 -0.17516,46.78 -0.002,117.0347 0.0769,192.6512 0.17509,168.0367 0.11592,-29.0508 0.4139,-44.7534 0.84927,-44.7534 0.43741,0 0.67073,16.068 0.67073,46.1889 0,25.404 0.19003,47.139 0.4222,48.3 l 0.42221,2.1111 H 480.04458 0.67552447 Z M 718.92692,2077.7444 c -130.87443,-0.094 -345.03257,-0.094 -475.90699,0 -130.87442,0.094 -23.79535,0.1708 237.95349,0.1708 261.74885,0 368.82792,-0.077 237.9535,-0.1708 z"
       id="path73" />
    <path
       style="fill:#000000;stroke-width:0.675524"
       d="m 43.233566,1745.2175 v -294.5287 h 2.026573 2.026574 v 292.1643 292.1644 H 479.95936 912.632 l 0.17044,-292.3333 0.17043,-292.3332 0.16807,294.6976 0.16814,294.6975 H 478.27132 43.233566 Z"
       id="path74" />
    <path
       style="fill:#000000;stroke-width:0.675524"
       d="M 0.67552447,1766.1587 V 1450.6888 H 23.981119 47.286713 v 291.9954 l 1e-6,291.9955 H 480.2979 913.30908 v -291.9955 -291.9954 h 22.93777 22.93777 l 0.36668,75.4899 c 0.63925,131.598 1.12637,529.4116 0.64769,528.9329 -0.25278,-0.2528 -0.66958,-77.302 -0.92635,-171.2206 l -0.46671,-170.7609 -0.11836,133.9227 c -0.0782,88.4229 -0.34701,133.9227 -0.79137,133.9227 -0.44281,0 -0.73254,-30.5658 -0.84691,-89.3381 -0.13186,-67.759 -0.17543,-61.4362 -0.18016,26.1766 -0.004,63.533 0.0775,104.6472 0.17989,91.3647 0.11808,-15.318 0.43017,-24.15 0.85319,-24.15 0.43233,0 0.66701,15.8908 0.66701,45.1658 0,24.8412 0.19334,46.5762 0.42957,48.3 l 0.42956,3.1342 H 480.05195 0.67552447 Z M 627.39335,2077.7444 c -80.53096,-0.095 -212.3089,-0.095 -292.83986,0 -80.53096,0.095 -14.64199,0.1719 146.41993,0.1719 161.06192,0 226.95089,-0.077 146.41993,-0.1719 z m 68.56573,-37.8294 c -119.72826,-0.094 -315.64725,-0.094 -435.37552,0 -119.72826,0.094 -21.76877,0.171 217.68776,0.171 239.45654,0 337.41603,-0.077 217.68776,-0.171 z"
       id="path75" />
    <path
       style="fill:#000000;stroke-width:0.675524"
       d="M 0.67552447,1766.1587 V 1450.6888 H 23.981119 47.286713 v 291.9954 291.9955 l 432.842307,-0.1678 432.8423,-0.1679 0.16962,-291.8276 0.1697,-291.8276 h 22.91041 22.91041 l 0.39518,63.3304 c 0.65215,104.5212 1.21919,541.6388 0.70187,541.1217 -0.26413,-0.264 -0.69261,-64.1011 -0.95215,-141.8601 l -0.47192,-141.3801 -0.11761,104.5374 c -0.0774,68.7775 -0.34742,104.5374 -0.78942,104.5374 -0.43895,0 -0.73294,-20.4321 -0.84819,-58.9395 -0.14713,-49.1757 -0.17827,-46.6858 -0.18806,15.0304 -0.006,40.6835 0.0778,68.1182 0.18725,60.9661 0.12072,-7.892 0.45875,-13.0038 0.85988,-13.0038 0.42416,0 0.66093,15.8158 0.66093,44.1477 0,24.2813 0.1953,46.0163 0.43403,48.3 l 0.43395,4.1523 H 480.05637 0.67552447 Z M 570.98706,2077.7444 c -49.5075,-0.096 -130.51977,-0.096 -180.02727,0 -49.5075,0.096 -9.00137,0.1738 90.01363,0.1738 99.015,0 139.52114,-0.078 90.01364,-0.1738 z m 41.20699,-37.8294 c -73.6575,-0.095 -194.18795,-0.095 -267.84545,0 -73.6575,0.095 -13.39227,0.1723 133.92272,0.1723 147.315,0 207.58023,-0.077 133.92273,-0.1723 z"
       id="path76" />
    <path
       style="fill:#000000;stroke-width:0.675524"
       d="M 0.67552447,1527.0231 V 1123.0594 H 479.90401 959.13247 l 0.39431,233.9004 c 0.21684,128.6452 0.57115,310.4288 0.78732,403.9636 0.28014,121.2544 0.18422,170.0633 -0.33445,170.0633 -0.51252,0 -0.77949,-17.2107 -0.90385,-58.264 l -0.17645,-58.264 -0.16503,58.264 c -0.10579,37.3402 -0.40194,58.264 -0.82468,58.264 -0.39579,0 -0.74031,-4.6603 -0.86143,-11.6528 l -0.20185,-11.6528 -0.15185,11.6528 -0.15186,11.6528 h -21.61679 -21.61678 v -380.658 -380.6581 H 478.27132 43.233566 v 140.5091 140.5091 h 2.026573 2.026574 v 240.1489 240.149 H 23.981119 0.67552447 Z M 718.92692,1126.6059 c -130.87443,-0.094 -345.03257,-0.094 -475.90699,0 -130.87442,0.094 -23.79535,0.1708 237.95349,0.1708 261.74885,0 368.82792,-0.077 237.9535,-0.1708 z"
       id="path77" />
    <path
       style="fill:#000000;stroke-width:0.675524"
       d="M 0.67552447,1527.0231 V 1123.0594 H 479.88092 959.08634 l 0.41619,222.4165 c 0.22893,122.329 0.60432,304.1126 0.83427,403.9636 0.30608,132.8998 0.21704,181.5472 -0.33222,181.5472 -0.5409,0 -0.80016,-12.6807 -0.92878,-45.429 l -0.17848,-45.429 -0.16408,45.429 c -0.10302,28.5412 -0.40572,45.429 -0.81421,45.429 -0.35756,0 -0.75044,-2.8119 -0.87305,-6.2486 l -0.22292,-6.2486 -0.14024,6.2486 -0.14017,6.2486 h -21.61679 -21.61678 v -380.658 -380.6581 H 478.27132 43.233566 v 140.5091 140.5091 h 2.026573 2.026574 v 240.1489 240.149 H 23.981119 0.67552447 Z M 627.39335,1126.6059 c -80.53096,-0.094 -212.3089,-0.094 -292.83986,0 -80.53096,0.095 -14.64199,0.172 146.41993,0.172 161.06192,0 226.95089,-0.077 146.41993,-0.172 z"
       id="path78" />
    <path
       style="fill:#000000;stroke-width:0.119417"
       d="m 912.58459,1243.5488 v -73.4415 h 0.35825 0.35825 v 73.4415 73.4414 h -0.35825 -0.35825 z"
       id="path79" />
    <path
       style="fill:#000000;stroke-width:0.119417"
       d="m 912.58459,1243.5563 v -73.4339 l 0.3881,-0.048 c 0.21346,-0.026 -71.63377,-0.057 -159.6605,-0.067 l -160.04862,-0.019 v -21.6739 -21.674 l 27.13751,-0.03 27.13751,-0.03 -27.13751,-0.03 -27.13751,-0.03 v -1.7315 -1.7316 h 182.9273 182.9273 l 0.0793,65.1121 c 0.0436,35.8117 0.11494,79.4467 0.15843,96.9666 l 0.0791,31.8545 h -23.4252 -23.42521 z"
       id="path80" />
    <path
       style="fill:#000000;stroke-width:0.119417"
       d="m 912.58459,1243.5575 c 0,-69.8355 0.0102,-73.4354 0.20898,-73.4873 0.11494,-0.03 -71.73229,-0.061 -159.66051,-0.069 l -159.86949,-0.014 v -21.6739 -21.6739 l 23.31617,-0.03 23.31617,-0.031 -23.31617,-0.029 -23.31617,-0.03 v -1.7315 -1.7316 h 182.9273 182.92729 l 0.0793,63.2612 c 0.0436,34.7936 0.11491,78.4286 0.15843,96.9666 l 0.0791,33.7054 H 936.0098 912.58459 Z"
       id="path81" />
    <path
       style="fill:#000000;stroke-width:0.119417"
       d="m 912.58459,1243.5587 c 0,-58.6335 0.0301,-73.4436 0.14927,-73.4917 0.0821,-0.033 -71.76513,-0.064 -159.66051,-0.07 l -159.80978,-0.01 v -21.6738 -21.6737 l 16.80794,-0.031 16.80794,-0.031 -16.80794,-0.029 -16.80794,-0.03 v -1.7315 -1.7316 h 182.9275 182.92748 l 0.0791,60.9922 c 0.0435,33.5458 0.11463,77.1807 0.15805,96.9666 l 0.0789,35.9744 h -23.42502 -23.42502 z"
       id="path82" />
    <path
       style="fill:#000000;stroke-width:0.119417"
       d="m 912.61425,1243.489 0.0301,-73.5011 H 752.95393 593.26357 v -21.6736 -21.6736 l 11.85214,-0.031 11.85213,-0.031 -11.85213,-0.029 -11.85214,-0.029 v -1.7315 -1.7316 H 776.1912 959.11883 l 0.079,57.7083 c 0.0434,31.7395 0.11445,75.3745 0.15778,96.9666 l 0.0788,39.2583 H 936.0093 912.5842 Z"
       id="path83" />
    <path
       style="fill:#000000;stroke-width:0.119417"
       d="m 911.50983,1243.9667 v -73.0235 H 752.3867 593.26357 v -0.4179 -0.418 h 159.6008 159.6008 v 73.4415 73.4414 h -0.47767 -0.47767 z"
       id="path84" />
    <path
       style="fill:#000000;stroke-width:0.119417"
       d="m 911.50983,1243.9667 v -73.0235 H 752.3867 593.26357 v -0.4179 -0.418 h 159.6008 159.6008 v 73.4415 73.4414 h -0.47767 -0.47767 z"
       id="path85" />
    <path
       style="fill:#000000;stroke-width:0.119417"
       d="m 911.50983,1243.9667 v -73.0235 H 752.3867 593.26357 v -0.4179 -0.418 h 159.6008 159.6008 v 73.4415 73.4414 h -0.47767 -0.47767 z"
       id="path86" />
    <path
       style="fill:#000000;stroke-width:0.119417"
       d="m 911.50983,1243.9667 v -73.0235 H 752.3867 593.26357 v -0.4179 -0.418 h 159.6008 159.6008 v 73.4415 73.4414 h -0.47767 -0.47767 z"
       id="path87" />
    <path
       style="fill:#000000;stroke-width:0.0105551"
       d="m 912.50159,1177.2439 c 0,-3.9447 0.001,-5.5584 0.003,-3.5861 10e-4,1.9723 10e-4,5.1998 0,7.1722 -10e-4,1.9723 -0.003,0.3586 -0.003,-3.5861 z"
       id="path88" />
    <path
       style="fill:#000000;stroke-width:0.0105551"
       d="m 912.5069,1177.2439 v -7.1669 h 0.0686 c 0.0387,0 0.0686,0 0.0686,0.011 0,0.01 -0.0143,0.011 -0.0317,0.011 h -0.0317 v 7.1563 7.1564 h -0.0369 -0.0369 z"
       id="path89" />
    <path
       style="fill:#000000;stroke-width:0.0105551"
       d="m 912.5069,1177.2439 v -7.1669 l 0.0343,10e-4 c 0.0189,6e-4 0.0462,0 0.0607,0.01 l 0.0264,0.01 -0.029,10e-4 h -0.029 v 7.1563 7.1564 h -0.0317 -0.0317 z"
       id="path90" />
    <path
       style="fill:#000000;stroke-width:0.0105551"
       d="m 912.50147,1171.4492 c 0,-0.7576 10e-4,-1.0676 0.003,-0.6888 0.002,0.3788 0.002,0.9987 0,1.3775 -0.002,0.3788 -0.003,0.069 -0.003,-0.6887 z"
       id="path91" />
    <path
       style="fill:#000000;stroke-width:0.0105551"
       d="m 911.50417,1177.7136 v -6.6972 h -12.96163 -12.96162 v -3.3882 -3.3882 h 23.38475 23.38476 v 10.0854 10.0854 h -9.87954 -9.87955 v -7.1511 -7.151 h 0.0317 c 0.0246,0 0.0317,0 0.0317,-0.021 0,-0.019 -0.007,-0.021 -0.0792,-0.021 h -0.0792 v 7.1722 7.1722 h -0.49608 -0.49609 z"
       id="path92" />
    <path
       style="fill:#000000;stroke-width:0.0105551"
       d="m 911.50417,1177.7136 v -6.6972 h -12.96163 -12.96162 v -3.3882 -3.3882 h 23.38475 23.38476 v 10.0854 10.0854 h -9.87954 -9.87955 v -7.1511 -7.151 h 0.0324 c 0.0252,0 0.0317,0 0.0289,-0.018 -0.003,-0.015 -0.017,-0.019 -0.0799,-0.022 h -0.0764 v 7.1726 7.1727 h -0.49608 -0.49609 z"
       id="path93" />
    <path
       style="fill:#000000;stroke-width:0.0105551"
       d="m 911.50417,1177.7136 v -6.6972 h -12.96163 -12.96162 v -3.3882 -3.3882 h 23.38475 23.38476 v 10.0854 10.0854 h -9.87954 -9.87955 v -7.1504 -7.1503 h 0.029 c 0.0173,0 0.029,-0.01 0.029,-0.019 0,-0.012 -0.0169,-0.017 -0.0765,-0.019 h -0.0765 v 7.1726 7.1727 h -0.49608 -0.49609 z"
       id="path94" />
    <path
       style="fill:#000000;stroke-width:0.0105551"
       d="m 911.50417,1177.7136 v -6.6972 h -12.96163 -12.96162 v -3.3882 -3.3882 h 23.38475 23.38476 v 10.0854 10.0854 h -9.87954 -9.87955 v -7.1511 -7.151 h 0.0264 c 0.0295,0 0.0364,-0.026 0.01,-0.036 -0.009,0 -0.0424,-0.01 -0.0739,-0.01 h -0.0572 v 7.1722 7.1722 h -0.49608 -0.49609 z"
       id="path95" />
    <path
       style="fill:#000000;stroke-width:0.0105551"
       d="m 912.5069,1177.2439 v -7.1669 l 0.0343,10e-4 c 0.0189,6e-4 0.0462,0 0.0607,0.01 l 0.0264,0.01 -0.029,10e-4 h -0.029 v 7.1563 7.1564 h -0.0317 -0.0317 z"
       id="path96" />
    <path
       style="fill:#000000;stroke-width:0.0105551"
       d="m 912.5069,1177.2439 v -7.1669 l 0.0396,7e-4 c 0.0218,4e-4 0.0491,0 0.0607,0.01 0.0187,0.01 0.0178,0.01 -0.008,0.01 l -0.029,7e-4 v 7.1563 7.1564 h -0.0317 -0.0317 z"
       id="path97" />
    <path
       style="fill:#000000;stroke-width:0.0105551"
       d="m 912.50092,1170.3356 c -10e-6,-0.1451 0.001,-0.206 0.003,-0.1352 0.002,0.071 0.002,0.1895 2e-5,0.2639 -0.002,0.074 -0.003,0.016 -0.003,-0.1287 z"
       id="path98" />
    <path
       style="fill:#000000;stroke-width:0.0105551"
       d="m 911.50417,1177.7136 v -6.6972 h -12.96163 -12.96162 v -3.3882 -3.3882 h 23.38475 23.38476 v 10.0854 10.0854 h -9.87954 -9.87955 v -7.1511 -7.151 h 0.0264 c 0.0295,0 0.0364,-0.026 0.01,-0.036 -0.009,0 -0.0424,-0.01 -0.0739,-0.01 h -0.0572 v 7.1722 7.1722 h -0.49608 -0.49609 z"
       id="path99" />
    <path
       style="fill:#000000;stroke-width:0.0105551"
       d="m 912.5069,1177.2439 v -7.1669 l 0.0396,7e-4 c 0.0218,4e-4 0.0491,0 0.0607,0.01 0.0187,0.01 0.0178,0.01 -0.008,0.01 l -0.029,7e-4 v 7.1563 7.1564 h -0.0317 -0.0317 z"
       id="path100" />
    <path
       style="fill:#000000;stroke-width:0.0105551"
       d="m 912.5069,1177.2439 v -7.1669 l 0.0396,7e-4 c 0.0218,4e-4 0.0491,0 0.0607,0.01 0.0187,0.01 0.0178,0.01 -0.008,0.01 l -0.029,7e-4 v 7.1563 7.1564 h -0.0317 -0.0317 z"
       id="path101" />
    <path
       style="fill:#000000;stroke-width:0.0105551"
       d="m 912.5069,1177.2439 v -7.1669 l 0.0396,7e-4 c 0.0218,4e-4 0.0491,0 0.0607,0.01 0.0187,0.01 0.0178,0.01 -0.008,0.01 l -0.029,7e-4 v 7.1563 7.1564 h -0.0317 -0.0317 z"
       id="path102" />
    <path
       style="fill:#000000;stroke-width:0.0105551"
       d="m 912.5069,1177.2439 v -7.1669 l 0.0449,2e-4 c 0.0247,0 0.052,0 0.0607,0.01 0.0123,0.01 0.009,0.01 -0.0132,0.01 l -0.029,2e-4 v 7.1563 7.1564 h -0.0317 -0.0317 z"
       id="path103" />
    <path
       style="fill:#000000;stroke-width:0.0105551"
       d="m 912.5069,1177.2439 v -7.1669 l 0.0449,2e-4 c 0.0247,0 0.052,0 0.0607,0.01 0.0123,0.01 0.009,0.01 -0.0132,0.01 l -0.029,2e-4 v 7.1563 7.1564 h -0.0317 -0.0317 z"
       id="path104" />
    <path
       style="fill:#000000;stroke-width:0.0422203"
       d="m 912.51721,1350.3206 c 0.006,-22.1936 0.0153,-38.7703 0.0213,-36.8372 l 0.011,3.5149 h 0.37974 0.37974 v 36.8372 36.8372 h -0.40109 -0.40109 z"
       id="path105" />
    <path
       style="fill:#000000;stroke-width:0.0844406"
       d="m 43.233566,1362.2795 v -80.6829 h 2.111014 2.111014 v 80.6829 80.683 H 45.34458 43.233566 Z"
       id="path106" />
    <path
       style="fill:#000000;stroke-width:0.337762"
       d="m 43.233566,1225.7391 v -55.5618 h 2.026573 2.026574 v 55.5618 55.5619 h -2.026574 -2.026573 z"
       id="path107" />
    <path
       style="fill:#000000;stroke-width:0.337762"
       d="m 44.162412,1169.9329 c 0.60375,-0.075 1.591705,-0.075 2.195455,0 0.60375,0.075 0.109772,0.1363 -1.097728,0.1363 -1.2075,0 -1.701477,-0.061 -1.097727,-0.1363 z"
       id="path108" />
    <path
       style="fill:#000000;stroke-width:0.337762"
       d="m 43.233566,1446.8045 v -3.7154 h 2.026573 2.026574 v 3.7154 3.7154 h -2.026574 -2.026573 z"
       id="path109" />
  </g>
</svg>
