<?xml version="1.0" encoding="UTF-8" standalone="no"?>
<svg
   viewBox="0 0 814.01939 493.9297"
   width="814.01941"
   height="493.92969"
   version="1.1"
   id="svg91"
   xmlns="http://www.w3.org/2000/svg"
   xmlns:svg="http://www.w3.org/2000/svg">
  <desc
     id="desc1">normal_layout.dxf - scale = 25.400000, origin = (0.000000, 0.000000), method = file</desc>
  <defs
     id="defs4" />
  <g
     id="g91"
     transform="translate(-72.532282,-4395.9569)">
    <path
       d="m 888,4394.6592 v 495.8605 H 72 888 Z"
       style="fill:none;stroke:#000000"
       id="path83" />
    <path
       d="M 230.27362,4394.6592 A 168.27339,168.27339 0 0 0 72,4562.6352"
       style="fill:none;stroke:#000000"
       id="path86" />
    <path
       d="m 96,4866.5197 v -303.8845 a 144.27339,144.27339 0 0 1 135.01483,-143.976 H 864 v 447.8605 z"
       style="fill:none;stroke:#000000"
       id="path87" />
    <path
       style="fill:#000000;stroke-width:0.955336"
       d="m 72.872016,4717.6874 c 0.337622,-171.1283 0.352403,-172.2647 2.376493,-182.708 7.05451,-36.3979 22.344264,-65.8287 46.937611,-90.3488 23.18853,-23.1195 48.4604,-37.0708 82.31432,-45.4416 l 10.9278,-2.702 335.56172,-0.2651 335.56173,-0.2651 v 246.9649 246.965 H 479.54198 72.53228 Z m 791.706944,-74.7647 v -224.9912 l -323.62002,0.2735 -323.62003,0.2735 -8.20567,2.0493 c -28.89289,7.2158 -51.80664,19.8712 -71.4989,39.4892 -20.81033,20.7319 -34.6049,46.9796 -40.400895,76.8731 -2.020206,10.4194 -2.040498,11.8594 -2.388346,169.4902 -0.192957,87.4398 -0.130476,159.5557 0.138846,160.2575 0.407381,1.0617 65.117315,1.2761 385.042355,1.2761 h 384.55266 z"
       id="path15" />
    <path
       style="fill:#ffffff;stroke-width:3.82134"
       d="m 100.16016,4693.5651 1.10544,-169.0944 12.16214,-23.2649 c 15.3799,-29.4201 47.65459,-59.3158 76.69687,-71.0436 l 21.95995,-8.8678 323.85886,-1.0787 323.85886,-1.0787 v 221.7613 221.7613 H 479.4285 99.054712 Z"
       id="path132" />
  </g>
</svg>
