<?xml version="1.0" encoding="UTF-8" standalone="no"?>
<svg
   viewBox="0 0 954.44907 951.72097"
   width="954.4491"
   height="951.72095"
   version="1.1"
   id="svg91"
   xmlns="http://www.w3.org/2000/svg"
   xmlns:svg="http://www.w3.org/2000/svg">
  <desc
     id="desc1">normal_layout.dxf - scale = 25.400000, origin = (0.000000, 0.000000), method = file</desc>
  <defs
     id="defs4" />
  <g
     id="g91"
     transform="translate(-962.74404,-2086.6196)">
    <path
       d="m 1920,2562.5197 a 480,480 0 0 0 -960,0 480,480 0 0 0 960,0 z"
       style="fill:none;stroke:#000000"
       id="path28" />
    <path
       d="m 1872,2562.5197 a 432,432 0 0 0 -864,0 432,432 0 0 0 864,0 z"
       style="fill:none;stroke:#000000"
       id="path29" />
    <path
       style="fill:none;stroke:#000000"
       d="m 1440,2912.96 h -40.68"
       id="path59" />
    <path
       style="fill:none;stroke:#000000"
       d="M 1399.32,2912.96 V 2588.73"
       id="path60" />
    <path
       style="fill:none;stroke:#000000"
       d="M 1399.32,2588.73 1212.8,2268.63"
       id="path61" />
    <path
       style="fill:none;stroke:#000000"
       d="m 1212.8,2268.63 h 83.61"
       id="path62" />
    <path
       style="fill:none;stroke:#000000"
       d="M 1296.41,2268.63 1440,2515.05"
       id="path63" />
    <path
       style="fill:none;stroke:#000000"
       d="M 1583.59,2268.63 1440,2515.05"
       id="path64" />
    <path
       style="fill:none;stroke:#000000"
       d="m 1667.2,2268.63 h -83.61"
       id="path65" />
    <path
       style="fill:none;stroke:#000000"
       d="m 1480.68,2588.73 186.52,-320.1"
       id="path66" />
    <path
       style="fill:none;stroke:#000000"
       d="M 1480.68,2912.96 V 2588.73"
       id="path67" />
    <path
       style="fill:none;stroke:#000000"
       d="m 1440,2912.96 h 40.68"
       id="path68" />
    <path
       style="fill:#000000;stroke-width:3.82134"
       d="m 1373.85,3035.8649 c -295.3711,-46.1902 -478.92968,-339.9843 -387.49171,-620.1987 53.65051,-164.4136 189.36551,-284.6829 363.46181,-322.0963 42.9152,-9.2225 133.5035,-9.2759 179.7677,-0.1059 180.3497,35.7468 324.1234,170.0728 371.4943,347.0824 24.332,90.9209 21.102,182.7862 -9.6821,275.3684 -52.1391,156.807 -189.1634,278.0695 -355.2199,314.3595 -33.9478,7.4189 -129.578,10.7124 -162.3301,5.5906 z m 115.1962,-42.1059 c 147.1174,-16.4046 275.9765,-107.7641 341.6527,-242.2277 10.3578,-21.2063 23.4765,-55.7126 29.1526,-76.6806 9.5565,-35.3026 10.3202,-43.6379 10.3202,-112.6399 0,-68.5386 -0.8068,-77.4915 -10.0578,-111.6054 -55.1562,-203.3948 -247.6413,-338.3005 -456.7255,-320.1022 -62.1429,5.4088 -104.0484,17.1206 -157.6304,44.0549 -184.9736,92.9815 -278.0964,299.7392 -225.37,500.3823 39.2269,149.2728 160.1043,269.4895 309.2634,307.5732 56.0256,14.3046 102.5336,17.5858 159.3948,11.2454 z"
       id="path11" />
    <path
       style="fill:#ffffff;stroke-width:3.82134"
       d="m 1419.6291,2991.3783 c -188.9309,-10.5077 -348.8526,-141.6557 -395.5954,-324.4182 -25.84962,-101.071 -13.7955,-204.4702 34.9313,-299.6378 23.3311,-45.5676 47.9694,-78.3758 86.513,-115.2002 53.4092,-51.0268 115.6216,-86.1032 187.111,-105.4964 34.2163,-9.2819 43.316,-10.1265 108.0575,-10.0295 78.1174,0.117 98.9744,3.8862 162.3786,29.3443 95.0131,38.1497 185.3168,124.6522 226.7697,217.224 46.0507,102.8397 51.5249,216.9236 15.3355,319.6017 -14.4457,40.9859 -21.6145,55.3856 -47.2388,94.8867 -68.7376,105.9623 -194.2719,182.4374 -313.2996,190.8612 -16.8139,1.1899 -34.0099,2.5603 -38.2134,3.0452 -4.2035,0.4849 -16.2407,0.4034 -26.7494,-0.181 z m 63.0889,-239.0557 0.037,-161.4517 82.3547,-141.3897 c 45.295,-77.7644 87.535,-150.4177 93.8666,-161.4518 l 11.5121,-20.062 -45.1812,0.09 -45.1813,0.09 -51.4491,88.7566 c -28.2971,48.8161 -59.8387,103.0433 -70.0924,120.5048 l -18.6433,31.7482 -69.8038,-119.6391 -69.8038,-119.6391 -44.4836,-1.0766 c -24.466,-0.5921 -44.4836,-0.1758 -44.4836,0.9253 0,1.101 42.1303,74.322 93.6229,162.7134 l 93.6229,160.7115 v 160.3114 160.3114 h 42.0348 42.0348 z"
       id="path125" />
    <path
       style="fill:#ffd42a;stroke-width:3.82134"
       d="m 1402.4331,2749.286 v -160.6669 l -91.6397,-157.4599 -91.6397,-157.4598 36.8486,-1.1012 c 20.2668,-0.6056 38.1238,0.2542 39.6822,1.9107 1.5585,1.6565 34.0871,56.7495 72.2858,122.4288 38.1987,65.6793 70.6439,119.417 72.1004,119.417 1.4566,0 34.4246,-54.9466 73.2622,-122.1035 l 70.614,-122.1034 38.9697,-0.1796 38.9696,-0.1795 -34.8969,60.1862 c -19.1933,33.1023 -60.3742,103.822 -91.5131,157.1548 l -56.6163,96.9686 v 161.9274 161.9274 h -38.2134 -38.2134 z"
       id="path95" />
  </g>
</svg>
