<?xml version="1.0" encoding="UTF-8" standalone="no"?>
<svg
   viewBox="0 0 813.9857 493.9297"
   width="813.98572"
   height="493.92969"
   version="1.1"
   id="svg91"
   xmlns="http://www.w3.org/2000/svg"
   xmlns:svg="http://www.w3.org/2000/svg">
  <desc
     id="desc1">normal_layout.dxf - scale = 25.400000, origin = (0.000000, 0.000000), method = file</desc>
  <defs
     id="defs4" />
  <g
     id="g91"
     transform="translate(-1032.7182,-4395.9569)">
    <path
       d="m 1847.9999,4562.6353 a 168.27339,168.27339 0 0 0 -158.2736,-167.976 l -657.7264,-1e-4 v 495.8605 h 816 z"
       style="fill:none;stroke:#000000"
       id="path90" />
    <path
       d="m 1055.9999,4418.6592 v 447.8605 h 768 v -303.8844 a 144.27339,144.27339 0 0 0 -135.0148,-143.976 z"
       style="fill:none;stroke:#000000"
       id="path91" />
    <path
       style="fill:#000000;stroke-width:0.955336"
       d="m 1032.7181,4642.9218 v -246.9649 l 336.0394,0.265 336.0394,0.265 10.9278,2.7021 c 66.7637,16.5082 112.7404,63.4959 128.2201,131.0396 l 2.1835,9.5275 0.2878,175.0653 0.2878,175.0653 H 1439.711 1032.7181 Z m 791.7239,61.8685 -0.2919,-163.1236 -2.1071,-8.9317 c -7.1137,-30.1536 -20.3549,-53.7873 -41.744,-74.5078 -19.5652,-18.9537 -40.4974,-30.3385 -69.2412,-37.6598 l -8.1716,-2.0814 -324.0977,-0.2773 -324.0977,-0.2772 v 224.9912 224.9912 h 385.0215 385.0216 z"
       id="path16" />
    <path
       style="fill:#ffffff;stroke-width:3.82134"
       d="m 1058.5121,4641.0217 v -221.638 h 310.7377 c 207.8411,0 318.1952,1.3786 333.2586,4.1632 59.5367,11.006 103.6066,54.1247 116.0357,113.5312 2.6928,12.8707 4.2367,75.8839 4.2367,172.9158 v 152.6657 h -382.1343 -382.1344 z"
       id="path133" />
  </g>
</svg>
