<?xml version="1.0" encoding="UTF-8" standalone="no"?>
<svg
   viewBox="0 0 953.16929 953.98611"
   width="953.16931"
   height="953.98608"
   version="1.1"
   id="svg91"
   xmlns="http://www.w3.org/2000/svg"
   xmlns:svg="http://www.w3.org/2000/svg">
  <desc
     id="desc1">normal_layout.dxf - scale = 25.400000, origin = (0.000000, 0.000000), method = file</desc>
  <defs
     id="defs4" />
  <g
     id="g91"
     transform="translate(-3.5798825,-2085.4355)">
    <path
       d="m 960,2562.5197 a 480,480 0 0 0 -959.999999,0 480,480 0 0 0 959.999999,0 z"
       style="fill:none;stroke:#000000"
       id="path26" />
    <path
       d="m 912,2562.5197 a 432,432 0 0 0 -863.999999,0 432,432 0 0 0 863.999999,0 z"
       style="fill:none;stroke:#000000"
       id="path27" />
    <path
       style="fill:none;stroke:#000000"
       d="m 480,2644.22 -99.027,203.55"
       id="path47" />
    <path
       style="fill:none;stroke:#000000"
       d="M 380.973,2847.77 H 280.436"
       id="path48" />
    <path
       style="fill:none;stroke:#000000"
       d="M 280.436,2847.77 419.211,2562.52"
       id="path49" />
    <path
       style="fill:none;stroke:#000000"
       d="M 679.564,2847.77 540.789,2562.52"
       id="path50" />
    <path
       style="fill:none;stroke:#000000"
       d="m 480,2644.22 99.027,203.55"
       id="path51" />
    <path
       style="fill:none;stroke:#000000"
       d="M 579.027,2847.77 H 679.564"
       id="path52" />
    <path
       style="fill:none;stroke:#000000"
       d="m 280.436,2277.27 138.775,285.25"
       id="path53" />
    <path
       style="fill:none;stroke:#000000"
       d="M 480,2480.82 380.973,2277.27"
       id="path54" />
    <path
       style="fill:none;stroke:#000000"
       d="m 480,2480.82 99.027,-203.55"
       id="path55" />
    <path
       style="fill:none;stroke:#000000"
       d="M 679.564,2277.27 540.789,2562.52"
       id="path56" />
    <path
       style="fill:none;stroke:#000000"
       d="M 579.027,2277.27 H 679.564"
       id="path57" />
    <path
       style="fill:none;stroke:#000000"
       d="M 380.973,2277.27 H 280.436"
       id="path58" />
    <path
       style="fill:#000000;stroke-width:3.82134"
       d="M 414.61577,3035.6155 C 257.23899,3012.75 119.16447,2911.5128 49.578737,2767.9679 -11.059877,2642.8796 -11.787367,2489.6988 47.646249,2361.0626 87.436837,2274.941 162.50307,2194.0928 246.47665,2146.9172 c 157.13621,-88.2777 347.53702,-81.0585 497.57007,18.8656 200.92677,133.8201 270.49158,398.2099 161.10662,612.3056 -82.53796,161.5489 -249.8848,263.385 -429.39608,261.3018 -21.01739,-0.2439 -48.53106,-1.9425 -61.14149,-3.7747 z m 157.93945,-48.9166 c 193.69603,-42.4181 331.36424,-206.1015 339.68136,-403.8711 5.4299,-129.1158 -37.06787,-239.2945 -126.65147,-328.3534 -193.04549,-191.9147 -513.0693,-160.0936 -666.62698,66.2851 -73.611305,108.5197 -92.995079,254.3646 -50.496316,379.9377 53.886126,159.22 189.224916,270.129 357.617986,293.0651 36.83687,5.0174 106.6924,1.6488 146.47542,-7.0634 z"
       id="path12" />
    <path
       style="fill:#0000ff;stroke-width:2.7021"
       d="m 295.65233,2821.6657 c 6.46528,-13.7469 37.43227,-77.6837 68.81554,-142.0817 L 421.52834,2562.4966 357.6857,2430.991 c -35.11346,-72.3281 -66.14498,-136.0655 -68.95895,-141.6386 l -5.11631,-10.1328 h 48.09768 48.09768 l 48.6949,100.4738 c 26.78219,55.2606 49.84889,100.8154 51.25933,101.2329 1.41044,0.4174 24.51126,-44.4918 51.33514,-99.7983 l 48.77069,-100.5574 47.82932,-0.7379 c 26.30611,-0.4058 47.82929,-0.3045 47.82929,0.2251 0,0.5296 -30.3986,63.333 -67.55245,139.5631 -37.15384,76.23 -67.55244,140.4645 -67.55244,142.7431 0,2.2786 29.92711,65.6575 66.50471,140.8419 36.57759,75.1844 67.11727,138.2476 67.86597,140.1402 1.07803,2.7254 -8.63588,3.2875 -46.69269,2.7021 l -48.05394,-0.7391 -48.79025,-100.6763 c -26.83464,-55.3719 -50.02345,-100.2652 -51.53068,-99.7628 -1.50724,0.5025 -24.64137,46.0713 -51.40919,101.2641 l -48.66876,100.3505 -47.87373,0.088 -47.87374,0.088 z"
       id="path94" />
    <path
       style="fill:#ffffff;stroke-width:3.82134"
       d="M 443.27584,2989.4299 C 313.29646,2979.8271 192.50598,2906.9684 119.3011,2794.0139 41.154923,2673.435 29.223137,2521.8115 87.489907,2389.7723 139.53434,2271.8336 246.32441,2181.037 373.43182,2146.6547 c 33.79521,-9.1416 43.93014,-10.1165 106.14679,-10.2108 58.81552,-0.089 73.35026,1.1071 100.29032,8.2538 128.62007,34.1208 227.40899,113.3398 284.76858,228.3566 96.18057,192.8601 31.64771,428.6111 -149.9556,547.8168 -80.63428,52.9289 -171.67664,75.9268 -271.40607,68.5588 z m -11.46403,-239.8988 47.7668,-99.1985 48.47057,99.2395 48.47057,99.2395 h 51.83969 c 28.51185,0 51.8397,-1.511 51.8397,-3.3578 0,-1.8468 -30.09308,-64.9434 -66.87351,-140.2146 -36.78043,-75.2713 -66.87351,-139.3256 -66.87351,-142.343 0,-3.0174 30.09308,-67.3892 66.87351,-143.0486 36.78043,-75.6594 66.87351,-139.0644 66.87351,-140.9 0,-1.8357 -23.29671,-3.3376 -51.77049,-3.3376 h -51.77049 l -48.53978,99.5169 -48.53977,99.5169 -47.7668,-99.3944 -47.76679,-99.3945 -52.54347,-0.1224 c -28.89891,-0.067 -52.54348,0.9707 -52.54348,2.3067 0,1.3361 30.85128,65.8524 68.55838,143.3697 l 68.55838,140.9405 -68.55838,141.295 c -37.7071,77.7122 -68.55838,142.1662 -68.55838,143.231 0,1.0649 23.64457,1.9177 52.54348,1.8952 l 52.54347,-0.041 z"
       id="path126" />
  </g>
</svg>
