<?xml version="1.0" encoding="UTF-8" standalone="no"?>
<svg
   viewBox="0 0 815.18528 815.4468"
   width="815.1853"
   height="815.44678"
   version="1.1"
   id="svg91"
   xmlns="http://www.w3.org/2000/svg"
   xmlns:svg="http://www.w3.org/2000/svg">
  <desc
     id="desc1">normal_layout.dxf - scale = 25.400000, origin = (0.000000, 0.000000), method = file</desc>
  <defs
     id="defs4" />
  <g
     id="g91"
     transform="translate(-1031.5258,-3114.3273)">
    <path
       d="m 1848,3522.5196 a 408,408 0 0 0 -408,-407.9999 h -408 v 816 h 816 z"
       style="fill:none;stroke:#000000"
       id="path88" />
    <path
       d="m 1824,3906.5197 v -384.0001 a 384,384 0 0 0 -384,-383.9999 h -384 v 768 z"
       style="fill:none;stroke:#000000"
       id="path89" />
    <path
       style="fill:#000000;stroke-width:0.955336"
       d="M 1032.7181,3665.1461 V 3400.518 h 10.9863 10.9864 v 253.6417 253.6417 h 385.0004 385.0003 v -202.0015 c 0,-132.9078 -0.3437,-206.1856 -1.0048,-214.2341 -1.2506,-15.2243 -4.8235,-38.7355 -8.1351,-53.5321 -2.1125,-9.4387 -3.8511,-15.8631 -9.7002,-35.8438 -0.4469,-1.5265 0.5063,-1.6719 10.9622,-1.6719 h 11.4517 l 2.9769,10.2699 c 5.6857,19.6142 9.1426,36.5754 13.1917,64.724 1.5164,10.5424 1.6742,29.2622 1.9631,232.8631 l 0.3141,221.3991 h -406.9965 -406.9965 z"
       id="path17" />
    <path
       style="fill:#008000;stroke-width:2.7021"
       d="m 1034.9035,3258.6164 v -141.9738 l 230.3538,0.9337 c 226.0994,0.9164 230.8379,1.0438 256.5615,6.8962 133.7919,30.4393 242.6255,120.3523 292.252,241.4442 14.7584,36.0113 14.6678,34.6735 2.3488,34.6735 -10.0317,0 -10.7303,-0.5592 -13.8949,-11.1217 -6.0645,-20.2415 -35.0167,-73.6308 -52.6406,-97.0718 -59.1474,-78.6704 -142.289,-130.0205 -243.4645,-150.3691 -18.472,-3.7151 -52.9668,-4.5108 -237.1091,-5.4693 l -215.4923,-1.1216 v 132.5768 132.5767 h -9.4574 -9.4573 z"
       id="path19" />
    <path
       style="fill:#000000;stroke-width:2.7021"
       d="m 1034.9035,3259.0693 v -141.5209 l 174.9608,1.0284 c 280.7671,1.6502 291.9934,2.0027 322.6263,10.1304 133.2617,35.3576 234.5547,123.4557 283.4403,246.518 8.5954,21.6376 7.9794,27.1879 -2.5836,23.2803 -4.1035,-1.518 -8.5979,-8.2156 -13.8218,-20.5978 -21.5902,-51.1746 -56.0503,-101.4082 -93.8175,-136.7605 -50.2396,-47.0273 -109.1139,-78.5264 -179.7145,-96.1515 -30.5221,-7.6196 -27.9964,-7.5465 -351.2564,-10.1739 l -120.9189,-0.9829 v 133.3757 133.3756 h -9.4574 -9.4573 z"
       id="path96" />
    <path
       style="fill:#000000;stroke-width:0.337762"
       d="m 1054.9157,3502.51 c -0.075,-90.4829 -0.1418,-102.0887 -0.5909,-102.0887 -0.4495,0 -0.5066,-14.9416 -0.5066,-132.4477 v -132.4477 l 36.9005,0.2236 c 20.2953,0.1229 64.6393,0.3694 98.5421,0.5478 107.401,0.565 185.3102,1.0672 205.1906,1.3228 10.5888,0.1362 -61.4177,0.2729 -160.0146,0.3038 l -179.2671,0.056 -0.085,233.3092 c -0.047,128.3201 -0.1228,187.3694 -0.1691,131.2207 z"
       id="path97" />
    <path
       style="fill:#000000;stroke-width:0.337762"
       d="m 1298.6958,3136.605 c -21.2706,-0.1365 -71.1243,-0.4126 -110.786,-0.6138 -39.6617,-0.2011 -86.0576,-0.4641 -103.1019,-0.5844 -30.2776,-0.2137 -30.9897,-0.2337 -30.9897,-0.8684 0,-0.6343 0.3579,-0.6451 15.1148,-0.4541 8.3132,0.1076 35.026,0.347 59.3618,0.5321 93.2549,0.7092 189.8079,1.549 228.4961,1.9874 l 22.1234,0.2508 -20.7723,-8e-4 c -11.4249,-4e-4 -38.1756,-0.1124 -59.4462,-0.2488 z"
       id="path98" />
    <path
       style="fill:#000000;stroke-width:0.337762"
       d="m 1032.8769,3502.5944 v -101.8353 h 10.724 10.7239 l -0.085,-49.9044 c -0.047,-27.4474 -0.1252,-54.4642 -0.174,-60.0372 -0.049,-5.5731 -0.1244,16.8079 -0.168,49.7355 l -0.079,59.8683 h -9.4574 -9.4573 v -141.3535 -141.3535 h 6.5019 c 3.5761,0 29.2249,0.1502 56.9974,0.33 27.7725,0.1799 77.2462,0.4834 109.9416,0.6746 250.5145,1.4649 284.1807,2.1994 309.4134,6.7505 16.1201,2.9075 47.536,12.6976 69.8936,21.7808 46.776,19.0036 86.8589,43.9741 124.1276,77.3279 6.2541,5.5971 22.2032,21.5389 27.9132,27.9003 29.7273,33.1186 53.4279,70.0225 70.9204,110.4293 l 1.8196,4.2031 v 15.3026 c 0,8.4165 -0.1188,15.3027 -0.2639,15.3027 -0.506,0 -4.0487,-3.8998 -5.4462,-5.995 -1.8709,-2.8051 -4.7303,-8.5794 -8.2792,-16.719 -10.6809,-24.4975 -22.8606,-46.6515 -37.8619,-68.8685 -22.9203,-33.9449 -48.1885,-61.4853 -78.7661,-85.8489 -44.5247,-35.4764 -94.6603,-59.863 -154.2852,-75.0464 -19.9144,-5.0711 -29.1739,-6.1123 -64.5126,-7.2539 -34.5111,-1.1148 -132.2723,-2.1854 -338.7755,-3.7101 -24.7073,-0.1824 -50.6601,-0.4164 -57.6729,-0.52 l -12.7505,-0.1883 v 0.9832 0.9832 l 16.6348,0.2066 c 9.1491,0.1135 48.7053,0.3663 87.9026,0.5617 39.1973,0.1954 92.8508,0.4978 119.2301,0.6721 26.3792,0.1743 55.5618,0.3501 64.8503,0.3907 9.2885,0.041 -51.4581,0.1572 -134.9923,0.2592 -83.5343,0.102 -152.0071,0.312 -152.1619,0.4668 -0.264,0.2639 -0.6357,191.837 -0.7413,381.981 l -0.047,84.3561 h -10.8084 -10.8084 z"
       id="path99" />
    <path
       style="fill:#000000;stroke-width:0.337762"
       d="m 1060.8267,3135.3774 c 0.418,-0.081 1.102,-0.081 1.52,0 0.418,0.081 0.076,0.1463 -0.76,0.1463 -0.836,0 -1.1779,-0.066 -0.76,-0.1463 z"
       id="path101" />
    <path
       style="fill:#000000;stroke-width:0.337762"
       d="m 1032.8769,3502.5944 v -101.8353 h 10.724 l 10.7239,10e-5 -0.086,-41.967 c -0.047,-23.0819 -0.1257,-45.7669 -0.1749,-50.4111 -0.049,-4.6442 -0.1247,14.1649 -0.1678,41.7981 l -0.078,50.2421 h -9.4574 -9.4573 v -141.4004 -141.4004 l 33.354,0.2244 c 18.3447,0.1234 58.2049,0.3716 88.5782,0.5516 212.0362,1.2563 261.4673,1.7042 298.4129,2.7041 48.9753,1.3254 60.1289,2.6833 87.6493,10.6707 60.1393,17.4546 113.8189,45.8527 158.9171,84.0721 11.6345,9.8598 29.4601,27.1161 38.3701,37.1447 30.0212,33.7899 52.5633,68.9523 70.4349,109.8683 l 1.8122,4.1488 v 15.357 c 0,8.4464 -0.1279,15.357 -0.2843,15.357 -0.5285,0 -4.3489,-4.2284 -5.6304,-6.2317 -1.7006,-2.6586 -5.0081,-9.3406 -7.6988,-15.5539 -3.9229,-9.0587 -5.6257,-12.6737 -10.898,-23.1368 -16.1982,-32.1454 -36.2376,-61.8611 -59.8319,-88.723 -6.2561,-7.1225 -22.223,-23.1869 -29.1447,-29.3227 -49.7074,-44.0635 -105.1625,-72.875 -172.9343,-89.8472 -13.4445,-3.367 -19.7518,-4.4292 -32.0126,-5.3916 -25.441,-1.9968 -71.208,-2.7816 -246.8101,-4.2322 -107.0306,-0.8841 -122.9455,-1.0116 -147.0955,-1.1783 -14.2113,-0.098 -30.4366,-0.2682 -36.0561,-0.378 l -10.2173,-0.1997 v 1.0057 1.0057 l 16.6348,0.2066 c 9.1491,0.1135 48.7053,0.3663 87.9026,0.5617 39.1973,0.1954 92.8508,0.4978 119.2301,0.6721 26.3792,0.1743 55.5618,0.3501 64.8503,0.3907 9.2885,0.041 -51.4581,0.1572 -134.9923,0.2592 -83.5343,0.102 -152.0047,0.3096 -152.1566,0.4615 -0.2659,0.266 -0.7007,220.2903 -0.7632,386.2083 l -0.03,80.1341 h -10.8084 -10.8084 z"
       id="path102" />
    <path
       style="fill:#000000;stroke-width:0.337762"
       d="m 1032.8769,3502.5944 v -101.8353 h 10.724 l 10.7239,10e-5 -0.086,-33.8607 c -0.047,-18.6234 -0.1258,-37.5086 -0.1752,-41.967 -0.049,-4.4585 -0.1248,10.7028 -0.1678,33.6917 l -0.078,41.7981 h -9.4574 -9.4573 v -141.4031 -141.4031 l 35.3806,0.2286 c 19.4593,0.1258 72.4669,0.4503 117.7946,0.7212 235.6064,1.4081 279.3762,2.0313 309.2213,4.4027 17.337,1.3776 27.8882,3.4847 48.9755,9.7807 74.2922,22.1814 137.7058,60.6355 188.2623,114.1626 30.5652,32.3611 56.1011,70.9261 74.6736,112.7743 l 3.2208,7.2571 v 15.3884 c 0,8.9094 -0.1282,15.3885 -0.3044,15.3885 -0.1675,0 -1.3454,-1.1156 -2.6177,-2.4792 -3.11,-3.3331 -5.5975,-7.8282 -10.5903,-19.1376 -17.5366,-39.7231 -38.4547,-73.5993 -64.8633,-105.044 -7.1951,-8.5672 -12.1962,-13.9723 -21.5677,-23.3097 -37.2384,-37.103 -81.7192,-65.9275 -132.2293,-85.6874 -25.3265,-9.9079 -58.2434,-19.2255 -76.0354,-21.5228 -19.047,-2.4594 -56.6578,-3.409 -181.5472,-4.5837 -52.261,-0.4916 -184.2821,-1.5733 -226.1318,-1.8527 -14.8615,-0.099 -30.5548,-0.2685 -34.8739,-0.3761 l -7.853,-0.1956 v 1.0025 1.0025 l 16.9725,0.2061 c 9.3349,0.1134 47.5232,0.3603 84.8628,0.5488 74.6435,0.3768 184.1311,1.0029 196.071,1.1213 4.1798,0.042 -48.7267,0.1104 -117.5699,0.1531 -68.8433,0.043 -137.2576,0.1784 -152.0319,0.3017 l -26.8624,0.2241 -0.214,40.8984 c -0.1176,22.4942 -0.311,127.4205 -0.4296,233.1697 l -0.2157,192.2711 h -10.762 -10.7621 z"
       id="path103" />
    <path
       style="fill:#000000;stroke-width:0.337762"
       d="m 1194.665,3135.9122 c -120.2137,-0.7094 -139.8917,-0.8944 -140.2893,-1.3189 -0.3072,-0.3279 5.3819,-0.3706 27.139,-0.2034 40.5359,0.3115 192.3937,1.5604 201.8129,1.6598 4.4585,0.047 -3.4452,0.096 -17.5636,0.108 -14.1185,0.012 -46.113,-0.098 -71.099,-0.2455 z"
       id="path104" />
    <path
       style="fill:#000000;stroke-width:0.337762"
       d="m 1190.2741,3135.913 c -108.1694,-0.6318 -135.5039,-0.898 -135.9022,-1.3235 -0.3022,-0.3229 5.7767,-0.366 28.3249,-0.2007 41.4779,0.304 194.0144,1.5588 201.9819,1.6616 3.7154,0.048 -5.7082,0.097 -20.9413,0.1085 -15.2331,0.012 -48.2915,-0.099 -73.4633,-0.2459 z"
       id="path105" />
    <path
       style="fill:#000000;stroke-width:0.337762"
       d="m 1032.8769,3502.5944 v -101.8353 h 10.724 l 10.7239,10e-5 -0.086,-27.781 c -0.047,-15.2796 -0.1266,-30.7449 -0.1764,-34.3674 -0.05,-3.6225 -0.1253,8.803 -0.1675,27.6121 l -0.077,34.1984 h -9.4574 -9.4573 v -141.3535 -141.3535 h 11.9061 c 6.5484,0 34.8571,0.1502 62.9082,0.3308 28.0512,0.1806 76.8409,0.4842 108.4217,0.6747 204.1161,1.2311 249.5484,1.9232 279.4983,4.2578 15.1283,1.1793 25.199,3.044 41.6971,7.7205 66.757,18.923 124.2523,50.2757 173.1056,94.3961 5.813,5.2498 23.5808,23.1396 28.5399,28.7357 29.1319,32.8745 51.6358,67.9898 69.2695,108.0888 l 2.1823,4.9625 v 15.4177 c 0,8.9267 -0.1282,15.4177 -0.3044,15.4177 -0.1675,0 -1.3454,-1.1156 -2.6177,-2.4792 -2.7603,-2.9583 -5.4713,-7.6056 -8.8979,-15.2533 -1.3318,-2.9723 -3.5801,-7.9881 -4.9962,-11.1462 -20.9228,-46.6591 -53.738,-93.507 -88.588,-126.4702 -50.0132,-47.3057 -108.2263,-78.8318 -178.9916,-96.9355 -31.9757,-8.1802 -29.3534,-8.1029 -367.1476,-10.8255 -22.571,-0.1819 -52.5896,-0.4112 -66.708,-0.5094 -14.1185,-0.098 -28.9758,-0.2673 -33.0163,-0.3756 l -7.3463,-0.1969 v 1.0037 1.0037 l 20.0124,0.2118 c 11.0068,0.1165 48.8151,0.3624 84.0183,0.5466 86.6191,0.4531 186.4595,1.0273 194.72,1.1197 3.7154,0.042 -48.2031,0.1102 -115.3744,0.1525 -67.1713,0.042 -135.5841,0.1778 -152.0284,0.3011 l -29.8987,0.2241 -0.2176,50.5246 c -0.1198,27.7886 -0.3162,132.7149 -0.4367,233.1696 l -0.2189,182.6449 h -10.7586 -10.7587 z"
       id="path106" />
    <path
       style="fill:#000000;stroke-width:0.337762"
       d="m 1032.5392,3257.7168 v -142.7046 l 201.7285,0.01 c 192.1956,0.01 219.2125,0.1244 231.7893,0.994 39.2368,2.713 76.1048,10.3785 111.6304,23.2099 69.4515,25.0851 129.6278,67.4402 176.6215,124.3153 22.3155,27.0077 40.9221,56.7247 55.9649,89.3825 1.8568,4.0312 2.1567,4.9513 2.1466,6.5863 l -0.012,1.9006 -1.4666,-3.3776 c -2.9882,-6.8824 -6.0972,-13.4026 -10.4685,-21.9546 -44.864,-87.7725 -122.6375,-156.6403 -218.5642,-193.5367 -23.1875,-8.9187 -52.5698,-17.3404 -71.8185,-20.5849 -20.7568,-3.4988 -43.7545,-3.8305 -340.2514,-4.9067 -50.9008,-0.1848 -102.0844,-0.4055 -113.7414,-0.4904 l -21.1946,-0.1545 v 142.0085 142.0084 h -1.1822 -1.1821 z"
       id="path108" />
    <path
       style="fill:#000000;stroke-width:0.337762"
       d="m 1053.0582,3116.4627 c 0.418,-0.081 1.102,-0.081 1.5199,0 0.418,0.081 0.076,0.1463 -0.7599,0.1463 -0.836,0 -1.178,-0.066 -0.76,-0.1463 z"
       id="path109" />
    <path
       style="fill:#000000;stroke-width:0.337762"
       d="m 1810.2646,3361.3153 c -1.0993,-2.5488 -3.5905,-7.9703 -5.5362,-12.0479 -26.7701,-56.104 -64.9088,-104.0077 -113.4097,-142.4469 -42.3694,-33.5796 -93.3225,-59.4526 -148.4626,-75.3864 -19.5384,-5.646 -29.3848,-7.5206 -46.2316,-8.8017 -30.3141,-2.3053 -75.7675,-2.9677 -291.4888,-4.2478 -32.231,-0.1913 -82.3887,-0.4953 -111.4616,-0.6755 -29.0729,-0.1803 -54.1897,-0.3288 -55.8152,-0.3301 -1.8207,0 -2.9554,-0.1374 -2.9554,-0.354 0,-0.2421 8.0157,-0.2921 25.7544,-0.1606 14.1649,0.105 66.0325,0.3409 115.2613,0.5242 310.0038,1.1543 317.9976,1.3014 341.3088,6.2767 57.9693,12.3726 114.7852,37.6596 162.0266,72.1128 57.4161,41.8737 101.7644,96.2942 130.1595,159.7208 2.2969,5.1306 2.8242,6.6263 2.9471,8.3597 0.082,1.161 0.094,2.1064 0.026,2.1009 -0.068,-0.01 -1.0232,-2.0954 -2.1225,-4.6442 z"
       id="path110" />
    <path
       style="fill:#000000;stroke-width:0.337762"
       d="m 1809.4062,3359.0087 c -3.2584,-7.379 -12.2601,-25.4224 -16.2424,-32.5573 -14.8257,-26.562 -32.2801,-51.0178 -52.6727,-73.8011 -6.4538,-7.2104 -22.7242,-23.4071 -30.0631,-29.9271 -15.7803,-14.0192 -29.2823,-24.4475 -46.1046,-35.6085 -36.1583,-23.9901 -76.5587,-42.6593 -119.7762,-55.3494 -20.7074,-6.0803 -31.87,-8.1606 -50.7937,-9.4658 -32.7685,-2.2603 -78.4624,-2.8429 -347.2196,-4.4273 -48.6715,-0.2869 -93.1295,-0.5678 -98.7954,-0.6243 -5.666,-0.056 12.1932,-0.048 39.687,0.019 209.5603,0.5088 355.5112,1.4459 386.9067,2.4841 25.1316,0.831 32.2799,1.6371 49.651,5.5989 54.2709,12.3776 109.6311,37.4747 154.2892,69.9459 18.2824,13.2932 32.6566,25.586 49.0802,41.973 17.197,17.1587 29.6097,31.7057 42.6664,50.0024 12.3209,17.2657 21.9796,33.2574 31.4165,52.0154 7.2697,14.45 10.8195,22.6489 10.6017,24.4859 -0.087,0.7345 -0.6659,-0.3135 -2.631,-4.7636 z"
       id="path111" />
    <path
       style="fill:#000000;stroke-width:0.337762"
       d="m 1031.5259,3359.3786 v -245.0512 l 215.0701,0.1029 c 233.3803,0.1116 215.4856,-0.024 233.8159,1.7698 39.7288,3.8877 80.9257,14.3605 117.879,29.9666 89.5787,37.8306 162.2492,105.596 206.0118,192.1064 4.9299,9.7455 8.1927,16.8234 8.0602,17.485 -0.055,0.2735 -0.8474,-1.1548 -1.7614,-3.1741 -2.6159,-5.7793 -10.6685,-21.697 -14.0745,-27.8214 -14.6506,-26.3437 -32.4189,-51.3231 -52.856,-74.3077 -5.5924,-6.2896 -20.4187,-21.3141 -27.1633,-27.5265 -39.2873,-36.1875 -84.4721,-63.9072 -134.5983,-82.5724 -38.776,-14.4389 -79.4157,-22.7813 -121.7633,-24.9951 -4.2584,-0.2226 -44.9677,-0.3195 -115.1769,-0.274 l -108.5905,0.07 110.6171,0.2161 c 78.1149,0.1526 112.3043,0.331 116.3591,0.607 12.91,0.8788 24.4707,2.1184 37.288,3.9983 6.3211,0.9272 7.9206,1.4972 2.2851,0.8145 -17.3847,-2.1063 -56.7138,-2.7306 -215.0406,-3.414 -288.02887,-1.243 -252.9839,-1.1886 -252.9839,-0.3928 0,0.6007 1.4521,0.6312 40.6159,0.8549 335.0081,1.9136 383.4831,2.4706 417.7274,4.7997 18.3565,1.2486 28.9582,3.1304 47.4556,8.4236 83.4657,23.8842 153.4368,67.9717 206.9064,130.3678 24.5031,28.5937 45.7368,62.4688 61.7749,98.5522 l 3.0485,6.8587 v 15.4381 c 0,8.9387 -0.1282,15.438 -0.3044,15.438 -0.1675,0 -1.3454,-1.1161 -2.6177,-2.4802 -3.1487,-3.376 -5.6066,-7.825 -11.0535,-20.0073 -5.5991,-12.5228 -9.5165,-20.6635 -14.0554,-29.2083 -24.0762,-45.3248 -54.5059,-84.268 -89.8481,-114.9852 -33.4231,-29.0494 -70.9345,-51.7754 -112.6437,-68.2443 -23.4983,-9.2783 -54.2436,-18.383 -72.2811,-21.4048 -23.1286,-3.8746 -69.0731,-4.7012 -395.1818,-7.1091 -25.0788,-0.1852 -48.9797,-0.427 -53.1131,-0.5374 l -7.5152,-0.2007 v 0.9963 0.9963 l 22.039,0.2154 c 12.1214,0.1185 49.6257,0.3636 83.3428,0.5446 112.0643,0.6016 188.5726,1.0424 194.3822,1.1198 3.158,0.042 -46.0245,0.1107 -109.2946,0.1523 -63.2701,0.042 -131.6814,0.1767 -152.0252,0.3 l -36.9886,0.2244 -0.2207,59.9818 c -0.1214,32.9899 -0.3206,137.9161 -0.4427,233.1693 l -0.222,173.1876 h -10.7557 -10.7558 v -101.8353 -101.8353 l 10.724,1e-4 h 10.7239 l -0.086,-22.3768 c -0.047,-12.3072 -0.1266,-25.3407 -0.1765,-28.9632 -0.05,-3.6225 -0.1253,6.3711 -0.1675,22.2079 l -0.077,28.7942 h -10.6391 -10.6392 l -0.085,-142.789 c -0.054,-90.4272 -0.116,-53.0215 -0.1693,102.0042 -0.056,162.9143 -0.197,244.7932 -0.4218,244.7932 -0.2248,0 -0.3377,-81.9089 -0.3377,-245.0511 z"
       id="path112" />
    <path
       style="fill:#ffffff;stroke-width:3.82134"
       d="m 1058.5121,3521.368 v -382.1343 l 190.1119,0.066 c 104.5615,0.036 206.4481,1.7783 226.4146,3.8709 168.4085,17.6499 297.3038,132.4061 338.9514,301.7703 5.1238,20.8364 6.3651,59.7824 7.7033,241.7 l 1.5953,216.8613 h -382.3882 -382.3883 z"
       id="path124" />
  </g>
</svg>
