<?xml version="1.0" encoding="UTF-8" standalone="no"?>
<svg
   viewBox="0 0 952.77958 954.01553"
   width="952.7796"
   height="954.0155"
   version="1.1"
   id="svg91"
   xmlns="http://www.w3.org/2000/svg"
   xmlns:svg="http://www.w3.org/2000/svg">
  <desc
     id="desc1">normal_layout.dxf - scale = 25.400000, origin = (0.000000, 0.000000), method = file</desc>
  <defs
     id="defs4" />
  <g
     id="g91"
     transform="translate(-3.4283396,-1125.846)">
    <path
       d="M 960.00001,1602.5197 A 480,480 0 0 0 8e-6,1602.5197 480,480 0 0 0 960.00001,1602.5197 Z"
       style="fill:none;stroke:#000000"
       id="path22" />
    <path
       d="m 912.00001,1602.5197 a 432,432 0 0 0 -864.000002,0 432,432 0 0 0 864.000002,0 z"
       style="fill:none;stroke:#000000"
       id="path23" />
    <path
       d="m 273.91823,1266.0471 v 670.8483 H 519.33694 A 193.94568,193.94568 0 0 0 653.1066,1602.5197 194.82734,194.82734 0 0 0 519.33694,1266.0471 Z"
       style="fill:none;stroke:#000000"
       id="path30" />
    <path
       d="m 360.78878,1354.4507 h 158.54816 a 106.42379,106.42379 0 0 1 0,212.8475 H 360.78878 Z"
       style="fill:none;stroke:#000000"
       id="path31" />
    <path
       d="m 360.78878,1850.5887 h 158.54816 a 106.4238,106.4238 0 0 0 0,-212.8476 H 360.78878 Z"
       style="fill:none;stroke:#000000"
       id="path32" />
    <path
       style="fill:#000000;stroke-width:3.82134"
       d="m 439.4545,2078.5498 c -5.25435,-0.9205 -22.45039,-3.5581 -38.21343,-5.8613 C 258.5049,2051.8332 120.90332,1949.9169 53.187213,1814.8982 -2.2648496,1704.3327 -11.875802,1572.2189 26.900637,1453.5584 74.031105,1309.3336 192.77405,1192.7926 339.5036,1146.7522 c 93.35901,-29.2939 200.88756,-27.7389 294.83942,4.2637 117.88038,40.1534 223.21548,134.1304 276.41145,246.6066 31.54726,66.7027 45.81783,132.41 45.44644,209.2524 -1.06348,220.0133 -155.53166,411.7781 -371.1682,460.7873 -38.754,8.8079 -121.93854,15.0292 -145.57821,10.8876 z m 137.56837,-52.5962 c 127.01358,-29.7788 232.0737,-111.8391 289.82926,-226.3798 87.05307,-172.6434 51.06786,-379.9459 -89.05993,-513.0536 -146.1383,-138.8171 -373.60633,-157.1753 -541.18677,-43.6774 -125.85394,85.2377 -196.687814,226.8622 -189.605488,379.0953 8.995236,193.3508 138.819748,353.0341 326.734788,401.8815 55.13022,14.3308 147.14603,15.2967 203.28814,2.134 z"
       id="path6" />
    <path
       style="fill:#ff0000;stroke-width:2.7021"
       d="m 275.61398,1602.523 v -333.888 h 134.67266 c 125.10904,0 136.14956,0.3777 155.46986,5.319 92.64975,23.6958 156.34309,115.572 144.66824,208.6808 -5.00042,39.879 -17.77513,69.1592 -44.92351,102.9664 l -14.76335,18.3845 11.86867,12.6897 c 15.44592,16.5143 30.35251,42.1908 39.37446,67.8222 6.51041,18.4961 7.22498,24.2675 7.22498,58.3555 0,34.4759 -0.67034,39.7457 -7.56158,59.4462 -22.30539,63.7659 -72.46454,110.1661 -137.89462,127.5608 -13.98228,3.7172 -37.81393,4.5742 -152.35539,5.4787 l -135.78042,1.0723 z m 276.57167,244.2859 c 28.98086,-8.9512 49.82012,-27.2234 64.56598,-56.6122 8.24472,-16.432 8.78403,-19.2523 8.78403,-45.9357 0,-26.4798 -0.59022,-29.633 -8.60883,-45.9925 -14.13143,-28.8307 -35.68074,-47.6932 -64.74118,-56.669 -16.27341,-5.0264 -24.97385,-5.4792 -105.27307,-5.4792 h -87.53356 v 108.0839 108.0839 h 87.53356 c 80.29922,0 88.99966,-0.4528 105.27307,-5.4792 z m 12.55281,-287.9323 c 23.18392,-11.0089 41.42902,-29.1353 52.18926,-51.8497 7.9756,-16.8361 8.60794,-20.2552 8.60794,-46.543 0,-25.127 -0.82827,-30.1392 -7.24178,-43.8228 -8.52385,-18.1862 -27.79621,-39.7032 -44.1405,-49.2816 C 551.12961,1353.8867 538.33883,1352.4 445.27844,1352.4 h -85.89942 v 108.2142 108.2143 l 93.8979,-0.8059 93.8979,-0.8058 z"
       id="path21" />
    <path
       style="fill:#d40000;stroke-width:2.7021"
       d="m 275.61398,1601.8029 v -334.0497 l 135.78042,1.8015 c 150.11508,1.9916 155.58177,2.5555 190.16017,19.6151 37.36996,18.4369 69.26849,50.3738 88.33936,88.4458 14.57023,29.0872 19.26666,49.6371 19.24721,84.2194 -0.026,46.2446 -12.25199,79.9329 -44.03288,121.3314 l -16.39295,21.3538 12.72904,14.0571 c 17.16203,18.9525 29.29972,39.926 38.6477,66.7821 6.98385,20.064 7.78902,25.8987 7.82144,56.6787 0.0419,39.7525 -5.93743,63.6835 -23.49587,94.0374 -15.32887,26.4996 -51.40301,61.1805 -77.79664,74.7921 -41.54038,21.423 -37.93505,21.0604 -235.75804,23.7095 l -95.24896,1.2755 z m 278.70697,245.1256 c 22.31795,-6.9654 41.39879,-21.6494 55.61364,-42.7983 14.90766,-22.1797 17.7571,-33.7577 16.40697,-66.6663 -0.94544,-23.0445 -2.23026,-29.2086 -8.70267,-41.7525 -11.02148,-21.3601 -34.5473,-43.7801 -54.27139,-51.7204 -15.8727,-6.3898 -18.04813,-6.5345 -110.09058,-7.325 l -93.8979,-0.8064 v 108.2142 108.2143 h 88.8846 c 81.06484,0 90.39541,-0.4715 106.05733,-5.3596 z M 565.6883,1559.982 c 21.31877,-10.7616 39.59244,-28.3726 50.70779,-48.8689 8.99841,-16.5927 9.13957,-17.3746 9.13957,-50.6292 0,-32.4568 -0.31666,-34.3512 -8.10629,-48.4954 -9.98963,-18.1388 -31.7399,-40.8632 -46.03805,-48.0999 C 551.67311,1353.9087 535.16867,1352.4 445.71315,1352.4 h -86.33413 l -7.6e-4,108.7594 -7.6e-4,108.7595 95.18222,-0.9436 95.18223,-0.9435 z"
       id="path92" />
    <path
       style="fill:#ffffff;stroke-width:3.82134"
       d="M 403.74508,2025.1645 C 183.21758,1983.6854 27.847835,1776.244 53.304362,1557.2748 c 34.479605,-296.583 347.386778,-469.9347 614.062778,-340.193 125.88003,61.2424 213.94961,180.0435 236.48962,319.0117 24.2512,149.5186 -36.30433,305.411 -155.86324,401.2498 -40.62772,32.5673 -110.34061,67.4784 -161.4173,80.8353 -48.2657,12.6218 -135.20604,15.9437 -182.83114,6.9859 z m 161.4581,-91.7167 c 87.14505,-20.5416 149.38805,-99.2453 149.38805,-188.8952 0,-47.8887 -14.27287,-89.4581 -43.23453,-125.9195 l -13.42541,-16.902 14.54193,-17.4901 c 28.91298,-34.7747 42.16433,-73.3437 42.02458,-122.3154 -0.10937,-38.334 -4.20535,-58.6294 -17.50718,-86.7472 -21.4703,-45.3844 -60.64335,-80.7036 -110.87582,-99.9678 l -26.28798,-10.0814 -144.25572,-1.3712 -144.25571,-1.3713 v 338.4726 338.4725 l 134.70235,-0.056 c 106.63058,-0.045 139.80462,-1.2591 159.18544,-5.8275 z"
       id="path127" />
    <path
       style="fill:#ffffff;stroke-width:3.82134"
       d="M 363.02763,1744.4433 V 1641.267 l 88.84624,0.2907 c 57.84569,0.1893 93.09171,1.856 101.01361,4.7767 51.07802,18.8319 80.26888,74.327 66.04138,125.5523 -7.2451,26.0856 -27.14563,49.8185 -53.08969,63.3135 l -23.87616,12.4194 h -89.46769 -89.46769 z"
       id="path128" />
    <path
       style="fill:#ffffff;stroke-width:3.82134"
       d="m 363.02763,1461.9099 v -103.4223 h 90.96195 c 90.19342,0 91.12963,0.084 110.8099,9.8907 64.8979,32.34 77.52856,116.5351 24.96655,166.4254 -29.03803,27.562 -30.99863,27.9909 -134.07082,29.3272 l -92.66758,1.2013 z"
       id="path129" />
  </g>
</svg>
