<?xml version="1.0" encoding="UTF-8" standalone="no"?>
<svg
   viewBox="0 0 813.94615 813.105"
   width="813.94617"
   height="813.10498"
   version="1.1"
   id="svg91"
   xmlns="http://www.w3.org/2000/svg"
   xmlns:svg="http://www.w3.org/2000/svg">
  <desc
     id="desc1">normal_layout.dxf - scale = 25.400000, origin = (0.000000, 0.000000), method = file</desc>
  <defs
     id="defs4" />
  <g
     id="g91"
     transform="translate(-72.605531,-3116.6691)">
    <path
       d="m 888,3114.5197 v 816 H 72 v -408.0001 a 408,408 0 0 1 408,-407.9999 z"
       style="fill:none;stroke:#000000"
       id="path81" />
    <path
       d="M 96,3906.5197 V 3522.5196 A 384,384 0 0 1 479.99997,3138.5197 H 864 v 768 z"
       style="fill:none;stroke:#000000"
       id="path82" />
    <path
       style="fill:#000000;stroke-width:0.955336"
       d="m 72.623859,3724.6157 c 0.01085,-121.4369 0.400525,-212.1758 0.954889,-222.3544 1.778622,-32.6571 7.463751,-66.4308 15.799787,-93.8617 l 2.395126,-7.8816 h 11.535529 c 8.83347,0 11.42928,0.2798 11.08191,1.1942 -5.68159,14.9569 -13.25191,48.8752 -16.470768,73.7961 -2.885253,22.3382 -3.316976,53.772 -3.329488,242.4201 l -0.01259,189.873 H 479.57861 864.57896 V 3654.1597 3400.518 h 10.98637 10.98636 v 264.6281 264.628 H 479.57861 72.605526 Z"
       id="path14" />
    <path
       style="fill:#000000;stroke-width:2.7021"
       d="m 98.90962,3382.5033 c 20.4636,-54.4595 52.18755,-103.3858 94.2713,-145.39 59.34763,-59.2355 122.79245,-93.948 206.29475,-112.8697 25.57638,-5.7957 30.76711,-5.9322 256.45859,-6.7449 l 230.35385,-0.8294 v 141.9604 141.9605 h -10.80839 -10.8084 v -132.5777 -132.5776 l -214.14125,1.0374 c -237.37709,1.1501 -232.82694,0.842 -291.15105,19.7114 -108.45506,35.0881 -199.78991,121.6949 -239.20776,226.8251 -5.96259,15.9026 -6.30843,16.2471 -17.12891,17.0581 l -11.043451,0.8278 z"
       id="path18" />
    <path
       style="fill:#000000;stroke-width:0.337762"
       d="m 479.62238,3138.0257 c 0.65019,-0.118 87.51419,-0.1383 193.03111,-0.045 l 191.84895,0.1695 -193.03111,0.045 c -106.16712,0.025 -192.49915,-0.052 -191.84895,-0.1694 z"
       id="path116" />
    <path
       style="fill:#000000;stroke-width:0.337762"
       d="m 582.80874,3137.6423 c -34.73885,-0.094 -59.36171,-0.2096 -54.71748,-0.2561 17.93536,-0.1796 120.89434,-0.7596 192.01783,-1.0815 40.96211,-0.1855 90.24585,-0.4371 109.5194,-0.5592 l 35.04284,-0.2219 v 1.2282 1.2283 l -109.35053,-0.083 c -60.14279,-0.046 -137.77321,-0.1603 -172.51206,-0.2546 z"
       id="path117" />
    <path
       style="fill:#000000;stroke-width:0.337762"
       d="m 886.51316,3451.3672 c -0.12379,-84.1844 -0.22505,-193.9795 -0.22505,-243.9892 v -90.9267 l -12.91941,0.1251 c -7.10567,0.069 -63.68507,0.2809 -125.73199,0.4714 -146.53819,0.4498 -242.40651,0.9281 -270.20979,1.3481 -43.38463,0.6555 -58.33132,1.5692 -71.96843,4.3992 -28.61761,5.939 -59.00882,15.3512 -83.90884,25.9867 -2.69365,1.1506 -5.08754,2.171 -5.31976,2.2676 -0.26105,0.1086 -0.4222,-0.1006 -0.4222,-0.548 0,-0.5405 0.40609,-0.8998 1.60437,-1.4194 28.44837,-12.337 59.10765,-21.7029 88.74703,-27.1108 22.58935,-4.1216 41.39901,-6.028 65.35699,-6.6243 7.23918,-0.1802 99.02622,-0.3194 214.2257,-0.325 l 201.55962,-0.01 v 244.7088 c 0,134.5898 -0.12673,244.7087 -0.2816,244.7087 -0.15486,0 -0.38285,-68.8781 -0.50664,-153.0625 z"
       id="path118" />
    <path
       style="fill:#ffffff;stroke-width:3.82134"
       d="m 99.405132,3692.3731 c 0.04538,-190.8295 0.733688,-214.4407 7.158878,-245.5709 29.05959,-140.7942 137.6152,-256.2798 274.84139,-292.3867 48.97222,-12.8855 90.18857,-15.0466 288.28504,-15.1156 l 190.11184,-0.066 v 382.1343 382.1344 H 479.57861 99.35493 Z"
       id="path123" />
  </g>
</svg>
