<?xml version="1.0" encoding="UTF-8" standalone="no"?>
<svg
   viewBox="0 0 954.60056 954.36026"
   width="954.60059"
   height="954.36023"
   version="1.1"
   id="svg91"
   xmlns="http://www.w3.org/2000/svg"
   xmlns:svg="http://www.w3.org/2000/svg">
  <desc
     id="desc1">normal_layout.dxf - scale = 25.400000, origin = (0.000000, 0.000000), method = file</desc>
  <defs
     id="defs4" />
  <g
     id="g91"
     transform="translate(-962.68484,-1126.0099)">
    <path
       d="m 1920,1602.5197 a 480,480 0 0 0 -959.99999,0 480,480 0 0 0 959.99999,0 z"
       style="fill:none;stroke:#000000"
       id="path24" />
    <path
       d="m 1872,1602.5197 a 432,432 0 0 0 -864,0 432,432 0 0 0 864,0 z"
       style="fill:none;stroke:#000000"
       id="path25" />
    <path
       style="fill:none;stroke:#000000"
       d="M 1404.17,1315.42 H 1440"
       id="path33" />
    <path
       style="fill:none;stroke:#000000"
       d="m 1404.17,1315.42 -225.11,577.69"
       id="path34" />
    <path
       style="fill:none;stroke:#000000"
       d="m 1179.06,1893.11 h 74"
       id="path35" />
    <path
       style="fill:none;stroke:#000000"
       d="m 1253.06,1893.11 88.87,-228.07"
       id="path36" />
    <path
       style="fill:none;stroke:#000000"
       d="M 1341.93,1665.04 H 1440"
       id="path37" />
    <path
       style="fill:none;stroke:#000000"
       d="m 1440,1386.28 -81.05,207.99"
       id="path38" />
    <path
       style="fill:none;stroke:#000000"
       d="M 1358.95,1594.27 H 1440"
       id="path39" />
    <path
       style="fill:none;stroke:#000000"
       d="m 1475.83,1315.42 225.11,577.69"
       id="path40" />
    <path
       style="fill:none;stroke:#000000"
       d="m 1440,1386.28 81.05,207.99"
       id="path41" />
    <path
       style="fill:none;stroke:#000000"
       d="M 1475.83,1315.42 H 1440"
       id="path42" />
    <path
       style="fill:none;stroke:#000000"
       d="M 1521.05,1594.27 H 1440"
       id="path43" />
    <path
       style="fill:none;stroke:#000000"
       d="M 1538.07,1665.04 H 1440"
       id="path44" />
    <path
       style="fill:none;stroke:#000000"
       d="m 1626.94,1893.11 -88.87,-228.07"
       id="path45" />
    <path
       style="fill:none;stroke:#000000"
       d="m 1700.94,1893.11 h -74"
       id="path46" />
    <path
       style="fill:#000000;stroke-width:3.82134"
       d="m 1394.7904,2078.0661 c -164.8411,-17.6533 -306.2513,-115.1232 -380.318,-262.1423 -92.07971,-182.7739 -59.52679,-396.0772 82.9728,-543.6802 96.6555,-100.1171 223.5553,-151.5095 360.027,-145.8052 75.4438,3.1534 131.5461,17.4952 196.2823,50.1771 148.4111,74.9248 244.1902,215.4769 261.3004,383.448 17.1816,168.6731 -66.049,342.3645 -209.9677,438.1751 -92.4435,61.5421 -206.6616,90.926 -310.2968,79.8275 z m 145.1623,-52.9206 c 163.6856,-37.7041 290.8382,-168.8573 325.2179,-335.4501 6.8898,-33.3857 7.7531,-47.7783 6.1144,-101.9272 -2.2238,-73.4848 -10.9435,-111.9506 -38.6239,-170.3845 -22.3098,-47.0963 -43.3695,-77.1888 -82.2334,-117.5039 -108.4401,-112.4894 -269.4895,-157.0693 -422.5108,-116.9548 -156.0769,40.9156 -275.3921,165.5197 -312.4296,326.2787 -11.6603,50.6107 -11.2903,138.9659 0.7931,189.3835 21.1284,88.1572 60.0803,156.0656 125.1478,218.1812 90.3902,86.2897 204.4393,126.4544 333.6104,117.4876 19.9665,-1.386 49.1778,-5.4857 64.9141,-9.1105 z"
       id="path7" />
    <path
       style="fill:#00ff00;stroke-width:2.7021"
       d="m 1183.5189,1888.7694 c 0,-0.7415 46.3396,-120.208 102.977,-265.4811 56.6374,-145.2732 106.5975,-273.5566 111.0226,-285.0743 l 8.0455,-20.9413 h 34.4187 34.4188 l 110.2497,283.0448 c 60.6374,155.6746 110.8336,284.5647 111.5471,286.4224 0.9966,2.5945 -6.7575,3.3755 -33.4435,3.3687 l -34.7408,-0.01 -30.8049,-79.0275 c -16.9428,-43.4651 -36.8501,-94.5454 -44.2385,-113.5118 l -13.4336,-34.4843 -99.8318,0.7081 -99.8318,0.7081 -43.7255,112.7609 -43.7255,112.7609 -34.4518,0.052 c -18.9484,0.028 -34.4517,-0.555 -34.4517,-1.2964 z m 336.9233,-301.9624 c -1.9874,-4.83 -20.5083,-52.2518 -41.1577,-105.3818 -20.6493,-53.13 -38.32,-96.6 -39.2683,-96.6 -1.3528,0 -47.4178,115.9223 -78.6524,197.9286 l -4.8886,12.835 h 83.7903 83.7902 z"
       id="path20" />
    <path
       style="fill:#00aa44;stroke-width:2.7021"
       d="m 1201.758,1888.275 c -8.5453,-0.6211 -15.537,-1.4484 -15.537,-1.8385 0,-0.39 49.6171,-128.3074 110.2603,-284.2609 l 110.2603,-283.5518 h 33.2877 33.2877 l 110.4305,283.5137 c 60.7368,155.9326 110.0516,283.8928 109.5884,284.3559 -0.4631,0.4632 -14.8783,1.6438 -32.0338,2.6236 l -31.1916,1.7815 -18.9167,-48.3527 c -10.4042,-26.5941 -30.331,-77.8213 -44.2818,-113.8383 l -25.3652,-65.4855 -101.4292,-0.04 -101.4293,-0.04 -42.9159,110.9099 c -23.6038,61.0004 -44.0081,111.5849 -45.343,112.4099 -3.4594,2.138 -30.3995,3.142 -48.6714,1.8139 z m 322.2252,-294.8636 c 0,-1.7681 -59.3226,-153.6559 -76.9819,-197.1023 -2.5673,-6.3162 -5.6383,-11.4839 -6.8244,-11.4839 -1.1861,0 -6.0937,9.4235 -10.9058,20.9412 -13.9216,33.3213 -72.818,184.9961 -72.818,187.5271 0,1.2624 37.6943,2.2953 83.7651,2.2953 46.0707,0 83.765,-0.9798 83.765,-2.1774 z"
       id="path93" />
    <path
       style="fill:#ffffff;stroke-width:3.82134"
       d="M 1365.4822,2025.3833 C 1190.5298,1993.64 1051.522,1855.7374 1018.009,1680.6727 c -7.5739,-39.5649 -8.3883,-113.8248 -1.6475,-150.2246 38.4673,-207.7177 213.4347,-355.2438 422.3743,-356.1306 113.8716,-0.4834 214.3438,39.6025 296.8628,118.4407 53.6581,51.2646 88.046,105.684 111.562,176.5484 17.6131,53.076 22.9313,92.6639 20.456,152.2691 -7.4312,178.9428 -125.4873,333.7755 -297.0444,389.5789 -59.7767,19.4439 -144.1027,25.2942 -205.09,14.2287 z m -66.2623,-243.6893 43.9823,-113.6924 97.0105,0.9628 97.0105,0.9627 44.148,113.8107 44.148,113.8106 38.4446,-1.081 c 31.7775,-0.8936 38.2416,-2.0751 37.2736,-6.813 -0.6441,-3.1527 -51.2202,-134.3296 -112.3915,-291.5044 l -111.2203,-285.7723 -38.0109,1.0823 -38.011,1.0822 -112.3149,288.256 c -61.7733,158.5408 -112.315,289.7208 -112.315,291.5111 0,1.7903 17.6093,2.765 39.1319,2.1661 l 39.1318,-1.089 z"
       id="path130" />
    <path
       style="fill:#ffffff;stroke-width:3.82134"
       d="m 1365.8739,1584.9022 c 26.8354,-72.5984 73.4763,-187.165 75.3741,-185.1455 1.9415,2.0659 41.6743,102.6789 72.3609,183.2348 l 3.2753,8.5981 h -76.7411 c -71.4809,0 -76.5717,-0.4584 -74.2692,-6.6874 z"
       id="path131" />
  </g>
</svg>
